<svg width="24" height="24" xmlns="http://www.w3.org/2000/svg">

 <g>
  <title>background</title>
  <rect fill="none" id="canvas_background" height="26" width="26" y="-1" x="-1"/>
 </g>
 <g>
  <title>Layer 1</title>
  <g stroke="null" id="svg_4">
   <g id="svg_5">
    <path fill="#ffd800" stroke="null" id="svg_1" d="m16.688757,1.039714l-9.148199,0c-0.646907,0 -1.089768,0.654227 -0.849123,1.254469l0.848208,2.405543l9.150029,0l0.848208,-2.405543c0.240646,-0.600242 -0.202216,-1.254469 -0.849123,-1.254469z"/>
    <path fill="#ffd800" stroke="null" id="svg_2" d="m16.689672,6.529731l-9.150029,0c0,0 -6.40502,5.490017 -6.40502,11.895037c0,3.660011 2.745009,5.490017 4.575014,5.490017s6.40502,0 6.40502,0s4.575014,0 6.40502,0s4.575014,-1.830006 4.575014,-5.490017c0,-6.40502 -6.40502,-11.895037 -6.40502,-11.895037zm-3.660011,12.71671l0,1.465835l-1.830006,0l0,-1.46126c-1.345969,-0.252541 -2.192347,-1.079703 -2.241757,-2.288422l1.584785,0c0.075945,0.635012 0.716447,1.042188 1.639685,1.042188c0.851868,0 1.454855,-0.412666 1.454855,-1.004673c0,-0.499592 -0.390706,-0.786902 -1.351459,-0.993693l-1.020228,-0.216856c-1.427404,-0.298291 -2.128297,-1.042188 -2.128297,-2.236267c0,-1.201399 0.795137,-2.057841 2.062416,-2.339662l0,-1.48139l1.830006,0l0,1.478645c1.235254,0.276331 2.060586,1.118133 2.100847,2.255482l-1.54178,0c-0.075945,-0.618542 -0.651482,-1.031208 -1.443875,-1.031208c-0.819843,0 -1.362439,0.379726 -1.362439,0.977223c0,0.483122 0.374236,0.760367 1.291984,0.955263l0.944283,0.201301c1.57472,0.331231 2.252737,1.010163 2.252737,2.225287c0,1.308454 -0.839973,2.185942 -2.241757,2.452208z"/>
    <path fill="#ffd800" stroke="null" id="svg_3" d="m14.859667,2.86972l-5.490017,0c0,-1.51616 1.228849,-2.745009 2.745009,-2.745009s2.745009,1.228849 2.745009,2.745009z"/>
   </g>
  </g>
 </g>
</svg>