<svg xmlns="http://www.w3.org/2000/svg" viewBox="0 0 54 54" width="54px" height="54px"><circle cx="27" cy="27" r="27" fill="#fff"></circle><path fill="#ea4335" d="M23.6 15.54c2.72-.91 5.77-.91 8.48.08 1.49.57 2.89 1.4 4.04 2.55l-1.24 1.24-2.3 2.3a6.04 6.04 0 0 0-2.72-1.56 8.02 8.02 0 0 0-3.7-.17 8.55 8.55 0 0 0-3.8 2.06 7.42 7.42 0 0 0-1.8 2.96c-1.4-1.07-2.72-2.14-4.12-3.2a13.04 13.04 0 0 1 7.16-6.27v.01z"></path><path fill="#fbbc05" d="M15.37 25a16.4 16.4 0 0 1 1.07-3.2c1.4 1.06 2.72 2.13 4.12 3.2a7.28 7.28 0 0 0 0 4.94c-1.4 1.07-2.72 2.14-4.12 3.21A12.73 12.73 0 0 1 15.37 25z"></path><path fill="#4285f4" d="M27.72 25.09h11.86c.4 2.22.33 4.52-.33 6.66a11.73 11.73 0 0 1-3.21 5.27c-1.32-1.07-2.64-2.05-4.04-3.13a6.25 6.25 0 0 0 2.55-3.87h-6.83v-4.94.01z"></path><path fill="#34a853" d="M16.44 33.15c1.4-1.07 2.72-2.14 4.12-3.2a7.56 7.56 0 0 0 2.88 3.86c.82.58 1.81 1 2.8 1.24a9.45 9.45 0 0 0 3.05 0 8.24 8.24 0 0 0 2.8-1.07c1.31 1.07 2.63 2.06 4.03 3.13a12.09 12.09 0 0 1-5.19 2.71 13.04 13.04 0 0 1-11.03-2.38 15.5 15.5 0 0 1-3.46-4.29z"></path></svg>