<svg width="48" height="48" xmlns="http://www.w3.org/2000/svg">

 <g>
  <title>background</title>
  <rect fill="none" id="canvas_background" height="402" width="582" y="-1" x="-1"/>
 </g>
 <g>
  <title>Layer 1</title>
  <path id="svg_2" fill="#ffffff" d="m24.097,0c-13.255,0 -24,10.745 -24,24s10.745,24 24,24s24,-10.745 24,-24s-10.745,-24 -24,-24zm-0.095,44.008c-11.046,0 -20,-8.954 -20,-20c0,-11.046 8.954,-20 20,-20s20,8.954 20,20c0,11.046 -8.954,20 -20,20z"/>
  <path transform="rotate(-180 24.166759490966797,23.999671936035156) " id="svg_3" fill="#ffffff" d="m36.204444,23.125l-8.904,-7.339c-1.969,-1.622 -1.985,0.929 -1.985,0.929l0,1.525c-0.078,0.572 -0.491,1.47 -2.326,1.47l-8.896,0l-0.847,0c0,0 -1.883,-0.076 -1.883,1.914l0,0.614l0,3.033l0,0.479c0.05,0.689 0.435,2.15 2.812,2.15l9.459,0c1.744,0 1.682,-1.309 1.682,-1.309l0,-0.076c0,-1.037 -1.039,-1.218 -1.561,-1.244l-7.912,0c-1.405,0 -1.699,-0.684 -1.75,-1.118l0,-0.539c0,-1.135 0.846,-1.346 1.32,-1.376l9.902,0l0.29,0c1.607,0 2.113,-0.867 2.27,-1.506l0.002,0c0,0 0.158,-0.895 1.043,-0.167l3.426,2.823c0,0 0.009,0.008 0.012,0.009l0.05,0.042c0.244,0.208 1.094,1.053 -0.06,1.867l-2.797,1.969l-0.02,0.014l-1.587,1.117l0,-0.033l-1.32,0.902c-1.319,0.904 -1.309,2.396 -1.309,2.396l0,0.342c0,0 0.161,1.332 1.458,0.422l9.431,-6.638c0,0 0,-0.001 0.001,-0.001c1.719,-1.21 0.003,-2.668 -0.001,-2.671z"/>
 </g>
</svg>