<svg viewBox="0 0 1100 1024" xmlns="http://www.w3.org/2000/svg" class="Layout__img___1uLaP"><g fill="#ffd800" mask="url(#mask-2)"><path d="M1007 131c-.2.5-.3.8-.5.9-.2 0-.4-.9-.5-2.7.3-.3.5-.3.8.2.2.5.3 1 .2 1.6zm-69 44.5c-.8 0-1-.2-.7-1 .2-.5.4-1 .4-1.6 1 .2 1.2.6.4 1.3-.8.6-1 1.1-.2 1.3zm82.4-72.5c0 5.2-1.1 10.2-3.3 14.9-1 11.5-2.4 23-4.4 34.2-2 11.3-4 21.7-5.9 31.2 1.3 1.7 1.5 5.2.9 10.6-.7 4.5-1 9-1 13.5a9.6 9.6 0 0 1-1-8.7c1.2-3.1.8-6.5-1-9.3-.4.5-.8 1.2-.8 2 0 .5 0 .8-.4.8-1.3-1.6-1-4 .6-7s1.5-5.3-.5-7c.4-1 .6-2.1.7-3.2.2-1.5.8-1.3 1.7.3a34.9 34.9 0 0 1-.7-14.1l2-16.3c.7-5.6 1.2-11.4 1.4-17.3a52 52 0 0 0-2-17.2c1.6-1.3 2.1-2.5 1.5-3.7a7.2 7.2 0 0 1-.3-5c-1.4.1-2.3 1.3-2.6 3.5-.3 2.1 0 3.6.7 4.2-.5 5-1 10.5-1.2 16.5a44.7 44.7 0 0 1-3 15c0 5.1-.4 10.2-1.3 15.2-.9 4-.6 8.8.7 14.4-2.7 2-3.7 4.4-3 7 .6 2.9.1 5.9-1.3 8.4.1-12.8 1-25.6 2.7-38.3l4.7-39.1c-1 .7-1.3 2-1 3 .3 1.3-.2 2.1-1.6 2.6h-.5c-.2-.7 0-1.5.5-2.1.5-.4.3-1.5-.6-3.2-3.2 6.8-5.9 13.8-8 21-2 7-5 13.8-9 20a199 199 0 0 1 10.4-27.4 109 109 0 0 0 8.8-28.8c-.6.2-1.1.5-1.5 1-.7.6-1.4 1.4-2 2.3-.5.8-.8 1.8-1 2.8-.1.7.3 1.5 1 1.8-1.8-.6-2.5.2-1.9 2.3.7 1.7.3 3.7-1 5-.4 0-.7-.7-.8-2.1-.7.4-1.1 1.2-1.1 2-.1.9-.5 1.8-1.1 2.5-.4 0-.5.4-.4 1.1v.5c.4 0 .5-.5.4-1.6 1.7-.9 2.1.1 1.4 3-.8 3-1.9 4.5-3.3 4.7-.2-.8.1-1.7.9-2.2.6-.4.9-1.5.7-3.3-2 1.6-3 4-3 7.3-.9 1.1-1.6 2.4-2.3 3.7-.9 1.7-1 3-.1 4a158.7 158.7 0 0 1-11 29.8c-4.7 9.3-9 18.6-13 28 1.7-.6 3-1.8 3.7-3.4.7-1.7 1.4-3.5 1.9-5.3 2-4.1 4.4-8.5 7.2-13 2.8-4.8 5.1-9.7 7-14.8-.8 7.2-3.3 14-7.3 20.1-3.8 5.8-6.9 12-9 18.6l-.2-1.5c-1 1.1-.9 1.7.2 1.5-1 5.4-3 10.5-6 15.1a56.9 56.9 0 0 1-9.5 11.2 76 76 0 0 1-7.3-1 12 12 0 0 1-5.5-3.5c0-.7.3-1 1-1 .8.2 1-.1 1-.8-2.7-8.3-3.4-17-2.1-25.5a119 119 0 0 0 1-25.4c-1 1-1.4 2.3-1 3.6.4 1.6 0 2.6-1 3-.2-2-.2-4 0-6 0-2.5 0-4.9-.3-7.3a573.9 573.9 0 0 0-15 51.2c-4.1 17.2-10 33.9-17.8 49.8-2 1-3.4.8-4-.6a4.3 4.3 0 0 0-3.8-2.3c.6-13.4 2.4-26.7 5.5-39.7l-.4-4.2c2.3-5.9 3.8-12 4.5-18.2.4-3.8 1.1-7.6 2-11.4a1 1 0 0 0-.5 0c-1 0-1.7-.6-1.8-2 1.1.6 1.7.6 1.8-.2.1-.6.5-.8 1.2-.8l1.3-4.3c-.1-3.2.4-6.4 1.4-9.5 1-2.9 3.2-5.1 6-6.3.7 0 1.2.1 1.4.4.2.3.6.3 1.3-.1 1.7 3 2.6 6.3 2.4 9.7-.2 3.3-.6 6.7-1.4 10-.7 3.3-1.6 6.6-2.7 10-1 3.1-1.6 6.4-1.6 9.8 2.6-6.2 5-12.5 6.8-19 2-6.6 3.9-13.3 5.7-20.1 1.8-6.8 3.7-13.4 6-19.7 2-6.1 4.8-12 8.3-17.5 1.1-.3 2.3.3 2.8 1.3s1 .6 1.5-1.2c2.9.4 4.6 2.2 5.1 5.4.5 3 1.2 6 2.3 8.8-.4 2.7-1 5.4-1.6 8-.7 2.9-.8 5.9-.4 8.9a39.9 39.9 0 0 0-2.9 18.5c.5 6.2-.3 12.5-2.3 18.5l.7 6.9c.2 2-.5 3.4-2.3 4 1 .4 1.7 1.4 1.6 2.5 0 1-.8 1.7-2.2 1.8 1.9.5 2.7 1.5 2.5 3l-.6 4.3c4.3-2.6 7.7-7.4 10-14.4 2-6.5 5-12.6 9-18.1a73 73 0 0 1 8.2-19.7c4.8-12 9.1-24 13-36.5a112 112 0 0 1 17.1-33.7 5 5 0 0 0 5.3 1.6c2-.5 4-.1 5.7 1a37.3 37.3 0 0 1 3.3 16.3zm-14.2 74.5c.5-1.9.4-2.3-.4-1.3-.8 1-.7 1.4.4 1.3.8.6 1.2.7 1.1.4 0-.4-.4-.5-1-.4zm-81.8 2.1c-.4-.3-.5-.1-.4.6-.4.4-.4.7-.2.8.2.2.2 0 .2-.8.7 0 .8-.3.4-.6zm1.4-2.8c0 1 0 1.4-.5 1.1l.1 1c1.2.7 1.7.4 1.6-.6-.1-1-.5-1.6-1.2-1.5zm1.8-7.7c.5 1.7.7 1.8.6.2-.2-1.6-.4-1.6-.6-.2zm2.4-7.8c-.8-.6-.9.1-.3 2.2-.3.8-.7 1.2-1.2 1.2s-.8.3-.7.6c.6.5 1 1.2 1.2 2a1 1 0 0 0 1.2 1l-.5-4.8c1-.8 1.1-1.5.3-2.2zm17.7 30.6c-.2-1.6-.4-1.6-.6-.2.6 1.8.8 1.8.6.2zm-3.9 14.1l1.6-.2-.1-1.6-1.6.2.1 1.6zm.7-9.2c.7.7 1.1.8 1 .4 0-.3-.3-.5-1-.4-.1-.7-.2-.8-.3-.2-.1.5 0 .6.3.2zM933 155.1v-.8c0-.2-.2.1-.5.8.4.7.6 1 .6.8v-.8zm.8-8.1c.7.6 1 1.6.8 2.6-.3 1 0 1.4.6 1a6 6 0 0 1 1-1.7c.3-.5.4-1 .3-1.7h-1.4c-.4-.3-.9-.3-1.3-.2zm2-6.4c-1.3 1-1.3 1.8.2 2.4.2 1.4.4 2.1.8 2 .3-.2.4-.6.4-1 .7-.5.7-.7.2-.6-.5 0-1 0-1.4-.4.5-1 1.3-1.8 2.2-2.4 1.2-.8 1-1.7-.5-2.6 0 .8-.6 1.6-2 2.6zm1.6-5.2c.1 1.4.4 2 .7 2v-.5c.2-.4.6-.6 1-.7-.1-.7-.7-1-1.7-.8zm7.6 57c0-.3-.4-.6-1.2-.9a2 2 0 0 0 .8 2.3c.7.5 1 .2 1-.9a.5.5 0 0 1-.6-.4zm1.4 8.5c-.4 0-.5.4-.4 1.1.3 0 .7.2.8.5.2.3.3.1.2-.6 0-.7-.3-1-.6-1zm15.7-3.5c-.4-.2-.5 0-.5.3-1 .8-1 1.6 0 2.4 1 .8 1 0 0-2.4.7 0 .9-.2.5-.4zm46.7-86.2c.1.6 0 1.2-.4 1.7-.3.4-.1.5.6.4 0-.4.2-.8.4-1 .3-.4.1-.8-.6-1zm-17.3 9c.3-.5.5-.4.6.3-1 3.7-2 6-3 6.7-.3-1.1 0-2.3.7-3.3.6-1 .9-2 .7-3.2.4.3.7.1 1-.5zm-2.5 7c.2 1.1-.2 1.5-1 1.2v-.5c.3-.4.6-.6 1-.7zm11.8-10.8c-.8-.7-.7-1.4.3-2.2.5 2 .4 2.8-.3 2.2zm-63 50.3c-1-.8-.9-1.6.5-2.5.6 2.4.4 3.3-.6 2.5zm-29.9 9.8c0 .5-.1 1-.4 1.4-.3.6-.4 1.2-.3 1.9a1.7 1.7 0 0 1-2-1.4c-.3-1-.5-2.1-.6-3.2 1.7-.9 2.3-.8 1.9.4-.4 1 0 1.4 1.4 1v-.1zm-3.5 4.1c-.6 0-.9 0-.9-.4-.3 0-.6.2-.7.6-.2.4-.6.6-1.3.7-.2-1.4-.4-2.2-.8-2.1a7 7 0 0 0 1.8-1.5c.4-.6 1-1 1.7-1 0 1 .4 2.1.9 3.1 0 .4-.2.6-.7.6zm-33.3-8.3c-.4.4-.5.9-.4 1.4 0 .5-.5.8-1.5 1a3 3 0 0 0 .8-2.3c0-.6.3-.7 1 0zm-3.4 4.1c2.5.1 3.1.7 1.8 1.7s-1.3 2.4 0 4c-2-.5-2.6-1.3-2.2-2.4.4-1 .5-2.1.4-3.2zm1 9.6c-.5-.7-1.3-1-2.2-.9 0 1.2.4 2.2 1.1 3.1.6.7.5 1.8-.4 3.3a3.2 3.2 0 0 1-1.1-2.8c0-1.3-.3-1.9-1-1.8a2 2 0 0 1 1-2.3c1-.4 1-1.1.1-2.1 1.5.5 2.5 2 2.5 3.5zm3.8-20a7 7 0 0 0-.7 3.6 2 2 0 0 1-.3-3.2c1-.9 1-2.3.2-3.3a2 2 0 0 1 .8 2.9zm-.2-7.7c1.3-.5 1.9-.3 1.7.8a6 6 0 0 1-.9 2.3c-.4-.3-.7-1.3-.8-3.1zm23.2 29.7a52.7 52.7 0 0 0-7.8 5c-.2-2-.8-2.8-1.9-2.4 2.7-2 5-4 7-5.8 2-1.9 4.4-3.3 7-4.2l.1 1a8 8 0 0 1-4.4 6.4zm-14.8 7.4a119 119 0 0 1-7.3 4c1 .6 1.7 1.9 1.4 3-.4 1.2 0 2.4.8 3.2 2-1 2.6-1.9 1.6-2.8-1-1-1.6-2.2-1.7-3.6 1-.1 2 0 3 .2 1 .3 2 .4 3 .2.7 1 .3 1.4-1.3 1.2-1.6-.1-2 .5-1.1 1.8.8 1.3 1.5 1.5 2.2.5.6-1 1.2-1.2 2-1-2.6 3.2-6 5.5-10 6.7-4.3 1.4-8.7 2.1-13.2 2.2-1 .1-1.5.9-1.4 2.3.2 1.4-.6 2.4-2.3 3-.1-1.1 0-1.7.6-1.8.5 0 .4-.7-.5-2 .7-.5.8-.7.5-.9-.4-.2-.6.2-.5.9-.3 0-.6.2-.7.6-.2.3-.6.6-1.3.6 2-2.3 1.6-3.4-.9-3a81.7 81.7 0 0 1-8.6 12c-3.4 4-5.9 8.7-7.4 13.7 3.9-2.3 6.8-6 8.3-10.2 1.8-4.7 4.3-7.5 7.4-8.6a3 3 0 0 1-1.5 3.1c-1.2.7-1.3 2.4-.3 5.1-.8-.6-1.2-.6-1.4 0v4.2c-.2 1-.8 1.8-1.7 2-1.1-.5-1.2-1.1-.2-1.8 1-.6 1.1-1.3.3-1.9a2.1 2.1 0 0 0-2.1 2.4c0 1.3-.6 2.5-1.5 3.4.4.6.7.7 1 .1.3-.6.7-.7 1-.4 0 3.6-1.5 7-4 9.6a52.5 52.5 0 0 1-8.7 6.8c-3.5.7-6.3.3-8.4-1.3-2.3-1.7-4-3.9-5.2-6.4a25.6 25.6 0 0 1-2.6-8.8c-.3-2.9-.4-5.7-.3-8.6l1.6-19.7c.7-7 1.6-14 2.7-20.7l.5-2.8c-1 1-2 1.8-3.2 2.3a7.4 7.4 0 0 1 2.5-3.5 6 6 0 0 0 1-.9l1-5-10.7 12-16.8 18.6c4.3-3.1 8.4-6.7 12-10.7 3.4-3.7 7-7.3 11-10.5-3.9 5.5-8 10.7-12.6 15.5-4.7 5-9.4 10.2-14.2 15.7-1.6.1-3 1-3.7 2.6-.9 1.6-1.9 3.1-3 4.6-1.2-.6-1.2-1.2-.2-1.9 1-.6 1.3-1.3.8-2a170 170 0 0 0-8 4.4 43 43 0 0 0-8 6c-4.3 0-8.5-.4-12.7-.9-2.7-.4-6.5-1.8-11.4-4.2a62 62 0 0 1-3.9-5.7c-1.3-2.2-2.8-3.2-4.6-3a62.1 62.1 0 0 1 2.3-37 199 199 0 0 1 15-29.2c3.8-2.2 8.1-3.7 12.6-4.3 4.7-.6 8.2.9 10.4 4.6-.3 3.7-.9 7.3-1.8 10.9-1 3.6-1.8 7.3-2.4 11l-5.3.5a21.8 21.8 0 0 1-.6-11.2 71.9 71.9 0 0 0-15 23.6c-3.5 9-5 19.6-4.3 32 .5.9 1 1.7 1.3 2.6l1.3 2.6a9.6 9.6 0 0 0 7.5 1.9 20 20 0 0 1 7.2.3 166.6 166.6 0 0 0 36.1-28.8c8.2-8.6 16-17.6 23.4-27l.4-1.7c1.2-4.8 3-9.5 5.5-13.7.6-.8 1.5-1 2.4-.8.9.2 1.1-.1.7-1.2 1.5-.2 3.1.2 4.4 1.2 2.2-3.2 3.7-6.9 4.5-10.7.8-4.1 2-8.2 3.3-12.1 3.5-4 6.8-6.1 10-6.4 3.2-.4 6.4.8 8.6 3a23 23 0 0 1 6 10.2c1.3 4.5 1.7 9.3 1.1 14l-.9 1.5a4 4 0 0 1-1.4 1.5c-.6 9.2-2.3 18.4-5 27.3-2.5 8.1-5.3 16.3-8.4 24.5 2-1 3.7-3 5-6.4 1.2-3 2-6.2 2.5-9.4a12 12 0 0 1 1.4 7.9c-.6 1.1-1.7 1.2-3.2.3.8 1.4 1.1 2.4.8 3.1-.3 1.1-.6 2.2-.7 3.3 4.7-1 9-3 12.8-5.9a55 55 0 0 1 10.5-6.7c-1.3 2-3 3.7-5 4.9zm-40.6 49.9a62.7 62.7 0 0 1 3.2-5.2c-1.2.4-2.3 1-3.2 2-1.5 1.2-1.5 2.3 0 3.2zM740.8 186a.5.5 0 0 0-.5.6c-.8 1.2-1.4 2.5-1.7 4-.6 1.8-.4 3.2.4 4.2.2-1.3.5-2.6 1-3.9.4-1.4.5-2.8.3-4.3.7-.3.8-.6.5-.5zm100.5 39c.4.2.6 0 .5-.3a.5.5 0 0 0 .5-.6l-.1-1 4.4-6.6a25 25 0 0 0 3.2-7.6 8.8 8.8 0 0 0-4.5 5.8 42.3 42.3 0 0 1-3.3 9c.2.3.1.7-.2 1-.7.1-.8.2-.5.3zm-4.3 19h-.1l-.5.6.6-.6zm-2.8-.5c-.2-1.6-.6-2-1.2-1.2.4.7.4 1.1.1 1.3-.3.2-.5.7-.4 1.4 1.1.6 1.6 0 1.5-1.5zm-10-38.6l-.2-1.6-.4.8c.4.7.6 1 .6.8zm-2.8 24.7c-.3-.4-.5-.2-.4.5.7 0 .8-.2.4-.5zm-.4 6.4c0 1 .3 1.9.9 2.6.7-.5 1.2-1.3 1.3-2.3.3-1-.5-1.1-2.1-.2zm1.4-13l-.1-.8c0-.1-.2.1-.5.9.5.7.7 1 .6.7v-.8zm.4-8.9c.9.5 1-.1 0-1.9h1c-.7-.9-.7-2.2 0-3 .8-1 .7-1.6-.4-1.8-.7.4-.9 2-.6 4.8-1 1-1 1.5 0 2zm1.7-29.6c-1-.5-1.2 0-.7 1.4h-.5c.2 1.8 0 3.7-.5 5.4-.5 2-.7 4-.5 6-1 .8-1 1.4-.3 1.9.8.5.9-.2.3-2h.6c-.3-1.9 0-3.8 1-5.4 1-1.6.9-3.5 0-6 1.3-.4 1.5-.9.6-1.3zm.2 15.2c.7-.8.8-1.1.5-1.1-.4 0-.5.4-.5 1.1zm1-10.3l.2 1c-.6 1.2-.7 1.7-.4 1.5l1-1 .7-1c.1-.4-.3-.6-1.4-.5zm1.3-8.7l.2 1.3.1-1 .2-1.1c0-.2-.2.1-.5.8zm4 19.7a180 180 0 0 0-2.4 41.3 50 50 0 0 0 9.7-15.3c2.8-6.5 5.4-12.8 7.6-18.7a16.1 16.1 0 0 1-6.6-9.5c-1-4-1.4-8-1.2-12 0-4.1.4-8.3 1-12.4.7-3.6.8-7.4.5-11-3.5 12.3-6.4 25-8.6 37.6zm9.6-15c.3-.3.4-.7.5-1 .1-.5 0-1-.2-1.4-.2-.3-.4-.1-.7.6.1 1.5.3 2 .4 1.8zm-.2 5.2l.4 4c.2 1.9.4 2.1.6.7l-.1-4c0-2-.4-2.2-1-.7zm4 3.3a23.1 23.1 0 0 1-.3-11.8c.8-3.1.8-6.5-.3-9.6-.4 2.6-1 6.1-1.5 10.6-.6 4.6.1 8.2 2.2 10.8zm.8-23.7c-.1-1.4-.6-1.9-1.2-1.5l-.1 1.7c-.2.5-.2 1-.1 1.6 1 .2 1.6-.3 1.4-1.7zm-4.1 1.5l.1 1.4c0-.4 0-.8.2-1.1l.1-1.1-.4.9zm.9-6.5c-.3.5-.5 1-.4 1.6.2 1.5.4 2.1.8 2.1.7-.5 1.1-1.4 1.1-2.3 0-1-.4-1.5-1.5-1.4zm2.4-22.8a28 28 0 0 1-2 5.3 5.1 5.1 0 0 0 0 5.1c.1-1.9.9-3.7 2-5.3a4 4 0 0 0 0-5zm15.6-10.2c-.1-1-1-1.5-2.8-1.3a223 223 0 0 1-4.6 15.7 153 153 0 0 0-4.4 16.6c-1.2 5.8-2 11.7-2.1 17.7-.2 6.7.4 13.5 1.8 20.1 5.3-9.1 9.3-19 11.7-29.3 2.6-10.8 3.2-23.2 1.7-37a3.6 3.6 0 0 1-1.3-2.5zm3.6 44.7c3.6-9.7 5-21.1 4.4-34.3.7-.8.8-1.1.5-1.1-.4 0-.5.4-.5 1.1-1.1 11-3.5 21.9-7 32.4-3.4 10-6.8 20-10 30a250 250 0 0 0 12.6-28.1zm3.8 26.1c-.4-.1-.5 0-.5.3.7 0 .9-.1.5-.3zm-71.7 11.6a8.5 8.5 0 0 0-3.2 4.9c-.4 1.9-2 3.4-3.9 3.8.1-2.1 1-3.3 2.3-3.7 1.4-.3 2-1.7 1.7-4.2.6 0 1.1-.1 1.6-.4.5-.3 1-.4 1.5-.4zm-75 10c-3.6-.3-6-2.6-7.4-6.7-1.3-4.2-.7-7.5 2-9.9 3.7-1.5 6.3-1 7.8 1.3 1.7 2.8 3 5.7 3.9 8.7-.4 3.4-3 6-6.3 6.6zm-11.6-43.8l-16.8 18.6c-5.4 6.1-11 12.4-16.8 18.7 4.4-3.1 8.4-6.7 12-10.7 3.4-3.7 7.1-7.3 11-10.5-3.8 5.5-8 10.7-12.6 15.5-4.6 5-9.4 10.2-14.1 15.7-1.7.1-3.1 1-3.8 2.6-.8 1.6-1.8 3.2-3 4.6-1.1-.6-1.2-1.2-.2-1.9 1-.6 1.3-1.3.9-2a170 170 0 0 0-8.1 4.4 43 43 0 0 0-8 6c-4.2 0-8.5-.4-12.7-.9-2.7-.4-6.5-1.8-11.4-4.2a62 62 0 0 1-3.8-5.7c-1.3-2.2-2.8-3.2-4.6-3a62.1 62.1 0 0 1 2.3-37 199 199 0 0 1 14.9-29.2c3.9-2.2 8.2-3.7 12.6-4.3 4.8-.6 8.2.9 10.4 4.6-.2 3.7-.8 7.3-1.8 10.9-1 3.6-1.7 7.3-2.3 11l-5.3.5a21.8 21.8 0 0 1-.6-11.2 71.9 71.9 0 0 0-15 23.6c-3.5 9-5 19.6-4.4 32l1.4 2.6c.3.9.8 1.7 1.3 2.6a9.6 9.6 0 0 0 7.4 1.9 20 20 0 0 1 7.3.3 166.6 166.6 0 0 0 36.1-28.8c10.3-10.9 20-22.4 29-34.4 2 .6 2.1 1.6.7 3.2-1.5 1.5-2.1 3.1-2 4.5zm-89.2 18a.5.5 0 0 0-.5.5c-.8 1.2-1.4 2.5-1.7 4-.5 1.8-.4 3.2.5 4.2.1-1.3.4-2.6.9-3.9.4-1.4.6-2.8.3-4.3.7-.3.9-.6.5-.5zm81.2-5.4a5 5 0 0 0 2-2.9c.9.7.6 1.8-.6 3.3a9.4 9.4 0 0 1-4 3.1 7.4 7.4 0 0 1 2.6-3.5zm-26.2 33.9a8.5 8.5 0 0 0-3.2 4.9c-.5 1.9-2 3.4-4 3.9.2-2.2 1-3.4 2.4-3.8 1.4-.3 2-1.7 1.7-4.2.5 0 1-.1 1.5-.4.5-.3 1-.4 1.6-.4zM602.1 141c-3.9-2.5-6-5.6-6.4-9.5-.4-4.2-.1-8.4.8-12.5 1-4.4 2.3-8.9 3.7-13.2 1.4-3.8 2.3-7.6 2.8-11.6a7.6 7.6 0 0 1 6.8-4.7c3-.1 5.6 1.3 7.7 4.3-.7 8.6-2.7 17-6 25l-9.4 22.2zm-1 52l-.7 6.8c.3-.1.6-.4.7-.7h.4c.9-.5 1.8-1.1 2.5-1.8.8-.7 1.7-1.4 2.6-1.8l3-.4c-.2.8-.8 1.4-1.6 1.8l-.9.7c-.2.3-.8.4-1.1.7l-.6.4c-1.1 1-2.3 1.8-3.7 2.8l-1.5.2-.2 1.2 1.7-1.3.1 1.2c.3-.3 1-.4 1.8-.5.3-.3.3-.3.3-.6l.3-.3c1-.5 1.9-1.2 2.5-2.2.3-.3.9-.4 1.2-.7.3 0 .6-.2.8-.4v-.3c-.6 0-.9 0-1.2.4v-.3c.6-.3 1.1-.6 1.8-.8.3-.3.7-.6 1.1-.7v-.4c.6-.3 1.1-1 2-1.7l1.6-1.4c0 .3 0 .3.4.2-.3.4-.6.7-.9.8l-.5 1v.6c-.7.4-1.4 1-1.9 1.7-.7.8-1.6 1.5-2.6 1.8-.7.3-1.1 1-1 1.7 0 1-.5 1.9-1.3 2.3-2 2.2-4.3 4.1-6.8 5.6l-.2.2c-.7 5.2-1.6 10.1-2.7 14.8-1 4.5-2.8 8.7-5.4 12.4.7 2.7.6 5.4-.2 8-.8 2.7-1.5 5-2 7.2-3-1-4.5-2.9-4.8-5.4a33 33 0 0 1 .2-8l.5-2.8c-1.2 0-1.7-.4-1.4-1.4.2-.9.3-1.8.2-2.7 1.1.2 1.4.7 1 1.5a2 2 0 0 0 .2 2.3l1.2-6c.8-2.8.8-5.9.2-8.8-1.8.2-2.2 1.2-1.3 3 .9 2 .6 2.8-.8 2.6v-5.2c-1 .5-1.8 1.2-2.5 2-1 .5-1.8 1.1-2.6 1.8l-2.5 2.1-.8 1.4h.3l-2.4.8h-.6c.3 0 .3 0 .3.3-.2.4-.6.7-1.1.8-.9.4-1.2.4-1.2.7-.7.3-1.4.7-2 1.2l-2.3 1.4-.6.1c-.3.4-.3.7-.2 1.3-.3.3-.3.3-.2.6-.8.8-1.4 1.9-1.6 3-.8 3.8-4.3 6-6.6 7.5a41.2 41.2 0 0 1-13.5 5.8c-1.2-.2-2.3-.1-3.4.3-2.4.6-6.9 2.3-8.5-1.6 0-.3 0-.6-.4-.6-.9-.2-1.6-.7-1.3-1 .3-.4.2-1 .4-1.7-2.2-1.3-2.4-2.8-.4-4.6.5-.7.7-1.6.6-2.5.3-.6.8-1 1.1-1.4 1-.5 1.8-1 2.6-1.8.8-.7 1.9-1 3-1 .3.4 1.2-.4.2-.6.3 0 .3 0 .3-.3l.7.5 1-1c.4 0 .7-.4 1-.7l.6.5 1.7-1c.7-.2 1.3-.5 1.8-.9 1-1 2.4-1.8 3.8-2.2 1.2-.4 2.3-1 3.2-2a4 4 0 0 1 4.5-1c-1.1-1.5-2.4-2-4-3-1-.3-1.8-.7-2.6-1.3-.3 0-.3 0-.4-.3a1 1 0 0 0-1-.2c-.6-.5-1.4-1-2.2-1.3l-3-1.2c-.9-.2-1.5-.8-2.5-1-.3-.3-1-.2-1.3-.5-.4.1-.8 0-1.2-.2a24 24 0 0 1-7.2-3.8l-2.4-3.4a255 255 0 0 0-9.8 14.3 131 131 0 0 1-12 16c.2 1.4 0 2.9-.4 4.3s-.7 2.9-.8 4.4l-3.7.4c-.8 1.2-1.7 2.3-3 3.2-1.1.9-2 2-2.8 3.3-8 1.5-13.2.3-15.4-3.8-2.2-4-3-9.2-2.4-15.5.6-6.8 2-13.5 3.8-20a83.1 83.1 0 0 0 3.2-17.5 19.9 19.9 0 0 0-7.7 10.7 31 31 0 0 1-6.5 11.7c.3-2.7 1.4-5.3 3.2-7.3 1.8-2 3-4.6 3.3-7.3a18.3 18.3 0 0 0-5.7 7l-4 9c.9.6 1.3.8 1.5.4 0-.4.4-.6.7-.6a6.4 6.4 0 0 1-1.7 3.6 6.7 6.7 0 0 0-1.7 4.2c-1.2-.5-1.5-1.1-1-1.7.4-.6.6-1.3.6-2a43 43 0 0 0-4.5 11.2 19.4 19.4 0 0 1-7.7 11l-.2-2.1a5.2 5.2 0 0 0 2.1-5c-1.8-.2-2.6.2-2.5 1.3l.4 3.7c-1.4.5-1.8 1.2-1.1 2l1.5 2.2a42.2 42.2 0 0 1-8.7 8.2c-3.4 2.3-6.4 4.5-9 6.6a11 11 0 0 1-4-1.8c-.9-.6-2-.9-3.2-.7-1-1.1-1.8-2.3-2.5-3.5l-2.5-3.5c-.4-8.8.7-17.6 3.4-26 2.6-7.8 5.4-15.3 8.6-22.4.3-3.3.9-6.6 1.7-9.8.8-3 2.6-5.7 5-7.6 2.5-.5 4.2-.4 5.2.6l3.3 3.4a70.6 70.6 0 0 1-3.1 16.1c-1.6 5-3.3 9.8-5 14.5l-4.8 14.7a76.6 76.6 0 0 0-3.1 16.4 136 136 0 0 0 24.7-35.6 304 304 0 0 1 21.8-38 5.5 5.5 0 0 0 3.4-2.4c.8-1.3 2.1-2 3.6-2 2.1-.2 3.5.5 4.2 2.2.8 1.7 2.2 2.5 4.3 2.3 1 5.8 1 11.8.2 17.6a114 114 0 0 1-3.6 16c-1.6 5.1-3.2 10.4-4.5 15.7-1.5 5.8-2 11.7-1.7 17.6 6-3.8 11.4-8.4 16-13.7a193 193 0 0 0 12.7-16.4l9.6-13.5c-1-2.4-1.6-5-1.7-7.6-.2-1-.2-1.9 0-2.8.2-.8.2-1.7 0-2.5-.1-.8.1-1.6.7-2.2.5-.6.9-1.2 1-2l.3-.3a3 3 0 0 0 3-1.2 24.4 24.4 0 0 1 9.8-6c.5-.3 1.1-.5 1.8-.5a11 11 0 0 0 3.3-1c.3.7.8 1.3 1.4 1.7l-.2-1.5c1.3-.4 2.5-1 3.5-1.6 1.2-.5 1.9-.2 2.3.7l2.5-2.2c.7-.3 1.4-.4 2.1-.2.4.6 1 .5 1.6-.2 3.2-1.8 6.5-2.2 10.2-2.6 1.4-.2 2.8-.5 4.1-1a9 9 0 0 1 5 0c1.4.5 2.9.7 4.3.6 1 .2 2 .7 2.9.9.8.5 1.7 1 2.6 1.3 1 .5 1.8 1.2 2.6 2a12 12 0 0 1 3.6-4.3c2.6-2 6.4-.2 11.2 5a58.2 58.2 0 0 0-3.2 14.2zm.6 11.3c-.4.1-.9 0-1.3-.1.1 1 .5 1.2 1.3.2zm-150.1 47.2c-.6-.1-.5 0 .3.2.3 0 .2-.1-.3-.2zm7.7-15.6c.1 1-.5 2.1-1.8 3.2-1.3 1-1.4 2.3-.1 4l2.8-3.8c1.3-1.7 1-2.9-.9-3.4zm18.6-34.7c-.6-.2-.5 0 .3.6.4 0 .3-.2-.3-.6zm6-6c.1.4-.2.9-.8 1.5-.7.6-.5 1 .6 1.3 0-.7.3-1.4 1-1.7.6-.4.4-.8-.7-1zm20 51.6c.5 1.7.7 1.8.5.2-.1-1.6-.3-1.6-.5-.2zm83.6.3c1.4-.1 2-1.4 2-3.7 0-2.3-.5-4-1.3-5-.1 1.5-.3 3-.6 4.4a14 14 0 0 0-.1 4.3zm-.6-13c-.3 1.6.4 2.5 2.2 2.6-.8-1-.8-2.3.1-4 .9-1.7.6-2.8-.9-3.4-.6 1.6-1 3.1-1.4 4.7zm2-9.1c-.2-1.8-.3-1.8-.5 0 .5 1.8.7 1.8.5 0zm-51-27.5c.3.8.5.7.4-.3l-.4.3zm46.7-11.5h-.6a4 4 0 0 0-2.5-.6c-1 .2-1.9.1-2.8 0l-4 .4c-.6.1-1.2 0-1.8-.1-.5 0-1 .1-1.5.5-1.8.2-3.6.6-5.4 1.1l-6 1.6c-3.4.7-6.7 1.7-9.9 3-1.2.3-2.3 1-3.8 1.6-.5 0-.9.3-1.2.7-.9.4-1.4 1-2.3 1.5l-.7.3-.9 1c-2.2 2.3-4 5-5.3 7.8-.4 0-.6-.2-.6-.7-.1-.6-.3-.8-.7-.8l-1 1.1c1.5 1 3.1 2 4.8 2.6 1 .5 2.2 1 3.3 1.2l3.2 1.5c4.5 2 8.8 4.2 13 6.7 3 1.2 4.7 3.8 6.6 6.1h.3c1.1-.4 2-1.1 2.9-1.5.7-.6 1.5-1 2.3-1.2.3-.4 1-.4 1.2-.8l.8-.7c1-.5 2-1 3-1.8l2.5-1.5a22 22 0 0 0 1.7-1.8 1.6 1.6 0 0 0 2.4-.5c.8-1 .8-1.3 2-1.2v-.6l.8-1 1-.4V202c0-5.6.6-11.2 1.8-16.6-1 0-1.8.3-2.5.8zM471.2 222v.5c.1.4-.2.6-1 .7a1 1 0 0 1 1-1.2zm79.6-44c0 .3 0 .3.3.3h-.3v-.3zM443-41.1c.2-1.8.4-1.8.6 0 .2 1.7 0 1.8-.6 0zm.5 4.5c0 .5 0 .8-.2.8-.1 0-.3-.6-.4-2 .2-.8.4-1 .5-.4l.1 1.6zm-1.7 16.8c-1-.4-1-1 0-1.9 1 1.7 1 2.3 0 2zm0-4.3c.5-.5.8-1.2.7-2 1 .3 1.4 1.1 1 2.4-.4 1.3-1 2-1.6 2-.5-.7-.5-1.7 0-2.4zm-.6 14.3c-.4.6-.6 1.4-.5 2.2-.7 0-1-.3-.7-1.3.2-.6.3-1.2.3-1.9 1.1 0 1.4.2 1 1zm-.2-20.4c0 2.1-.3 4.2-.7 6.3a16 16 0 0 0-.3 5.1c-.8-.5-1.8-.7-2.7-.5-.7.3-1.3-.5-1.8-2.2l-1.8 1.2c-.5.5-1.1 1-1.7 1.3a6 6 0 0 1 1.6 5.7c-.5 2.5-.6 5-.2 7.5-3.3-.7-4.8 1-4.3 5.3-1.2-1-1.5-2.6-1-5 .4-2.4 1.6-3 3.5-2.2-1.2-3.9-1.5-8-1-12l1.2-14c.3-4.9.4-9.7 0-14.5a32 32 0 0 0-3.8-13.3 36.3 36.3 0 0 0-10.4 5.7c-2.8 2.3-5.4 4.9-7.7 7.7l-6.9 8.5c-2.3 2.9-4.9 5.5-7.7 7.8a33.2 33.2 0 0 1-7.5 11c-3 3-5.5 6.8-6.9 10.9-.3 0-.5 0-.5-.2s-.4-.2-1.1-.2a121 121 0 0 1 20-29.4c8-8.7 16.2-17 24.6-25.1 0-.7-.8-1-2.2-.9 2-.9 4.4-.7 7 .6 2.6 1.4 5.4 1.9 8.2 1.6a29.4 29.4 0 0 1 5.2 15.8c0 5.9-.4 11.7-1.1 17.5zm-9.3 16.3c-.2-.5-.5-.6-.8-.2.2 1.8.3 2.6.5 2.6s.3-.3.5-.8c0-.6 0-1.1-.2-1.6zm2.5-9.7l.1 1.4c0-.4 0-.8.2-1.1l.1-1.1c0-.2-.2.1-.4.9zm3.3-3.5c1.5.5 2.3.3 2.4-.8 0-1.1-.5-1.6-1.5-1.5 0 .4-.2.8-.4 1.1-.3.3-.5.7-.5 1.2-1 0-1 .5 0 1.3.9.8 1 .4 0-1.3zm.7 5.8c-.1-1-.6-2-1.4-2.5v2.4c0 1 .4 1 1.4.1zM435.7-35c.4 1.4.6 1.3.5-.3-.2-1.6-.4-1.4-.5.3zm1.2 1.8c-.4-.5-.7-.2-1 .9.7-.1 1.1.1 1.2.7 0 .5.4.7 1.1.6-.8-1-.8-1.5.1-1.6 1 0 1.3-.5 1.2-1.2-1.3 1-2.2 1-2.6.6zm2.7-10.5c-.2-1.6-.4-1.7-.6-.2.5 1.8.7 1.8.6.2zm-1.1-5c1-.1 1.6-.5 1.5-1.2-1 .1-1.6.5-1.5 1.2zM331.2 67.7c1.3-4.3 3.3-8.4 6-12 2.7-3.5 4.7-7.5 6-11.8a217 217 0 0 0 17.4-27.8c5-9.6 11.3-18.5 18.7-26.4-7.9 13.4-15.9 26.4-24 39.3-8.1 12.8-16.2 25.7-24 38.7zm-4 7.9a8.7 8.7 0 0 1 4-8l-1.4 4.5a5.7 5.7 0 0 1-2.6 3.5zm91-141c-.8.2-1.6.4-2.3.9 0-1.1 1.3-1.8 4.1-2a2 2 0 0 1-1.7 1.2zm-2.7 1.4c-.4 0-.3-.1.4-.5a.5.5 0 0 1-.4.6zm-3.1 1.4c0-.7.4-1 1.5-1.2 0 .8-.4 1.2-1.5 1.3zm-2 1.8c-.1-1.4.2-1.7 1-.9.8.8.5 1.2-1 1zm-3.4 3c.3-1.6 1.7-2.8 3.4-3l-1.4 2c-.4.7-1.2 1.1-2 1.1zm-.4 1.2c-.4 0-.2-.3.4-1.1 0 .7 0 1.1-.4 1.1zm-6 5c0-.4.3-.8.8-1.2.4-.4.7-.8.6-1.2 1.1 0 1.3.4.7 1.3-.6 1-1.3 1.3-2 1zm-2.8 8.3c1.4-.2 2.2.3 2.3 1.3l-2.1.3-.2-1.6zM394-44c.2-.7.3-1.4.3-2.2 0-.7.4-1 1.5-.7-.3.7-.4 1.5-.3 2.2 0 .7-.4 1-1.5.7zm-6.7 8.2a2 2 0 0 1 .2-1.4c.1-.4.2-.9 0-1.3.8 0 1.2.5 1.3 1.7.2 1.3-.3 1.7-1.5 1zm-.4.6a.5.5 0 0 1 .4-.6.5.5 0 0 1-.4.6zm-.5.6c-.4 0-.2-.2.5-.6a.5.5 0 0 1-.5.6zm-5.3 5.9c0-.4.2-.7.7-1.2.5-.4.7-.7.7-1.1 1-.1 1.3.4.7 1.5-.6 1.2-1.3 1.5-2 .8zm-.1 1.3c-1-.7-1-1.2.1-1.3 1 1.8.9 2.2-.1 1.4zM364.8-5c1.4-.8 1.6-.8.6.2s-1.2 1-.6-.2zm-8.6 14.3c.2-2.5 1.3-4.9 3-6.7 1.6-1.7 3-3.6 3.7-5.8 1 2 .3 4.2-1.7 6.4-1.9 1.9-3.6 4-5 6.1zm-.5.6c-.4 0-.2-.1.5-.6a.5.5 0 0 1-.5.6zm-1.3 3.4c-.7-.3-1-.6-.6-1 .3-.3.4-.7.4-1.2.8.3 1 .7.7 1-.3.3-.5.7-.5 1.2zm-5.8 16.1c.2-1.4.4-1.4.6.2.2 1.6 0 1.6-.6-.2zm-5.4-.5c-.9-1.7-.8-2.1.2-1.3 1 .7.9 1.2-.2 1.3zm-1.2 3.9c-1.1-.6-1.4-1.2-.7-1.8.6-.5 1-1.2.9-2h1c.2.7 0 1.4-.3 2a6 6 0 0 0-.9 1.8zm-6 8.7a.5.5 0 0 1 .4-.6c.4 0 .2.2-.4.6zM370.4 486l-.4 1.4.1-1.1.2-1v.7zm1.2 6.3c-.4 0-.6 0-.6-.2s-.4-.2-1-.2l-.2-1.5c1-.2 1.6.6 1.8 2zm-.2 3.2l-1.6.2a1.4 1.4 0 0 1 1.4-1.7l.2 1.5zm-2 .8c-.4 0-.3-.2.4-.6a.5.5 0 0 1-.5.6zm1.5 15.1l.2 1.6c0 .5 0 .8-.2.8s-.4-.8-.6-2.6c.3-.4.5-.3.6.2zm10 119.9c1.9 1.6 2.4 2.8 1.6 3.6-.8.8-1.3-.4-1.7-3.6zM371 527.9c.2-1.5.4-1.4.6.2.1 1.6 0 1.5-.6-.2zm-.8-2.9l.1-1 .2-1.2v.8l-.3 1.4zm-47-442.5a.5.5 0 0 1 .4-.6c.3 0 .2.2-.5.6zm-5.4 10.2a51.7 51.7 0 0 1 5.4-10.2c.2 2.8-.3 5-1.5 6.3a76 76 0 0 1-4 4zm-5.9 10.8c.5-1.2 1-2.4 1.8-3.4.7-1 1.2-2.1 1.3-3.3.8 1.3.8 3-.1 4.3-1 1.5-1.9 2.3-3 2.4zm-3 6.2c.2-1 .5-2 1-3l1.5-3.1h.5c.5 2.4-.8 5-3 6.1zm-.4 1.7c-.1-1 0-1.6.3-1.7.2 1.1 0 1.6-.3 1.7zm-1.5 1.5c0-.5.1-1 .4-1.4l1-.1a3 3 0 0 1-.8 2.2c-.3 0-.5-.2-.6-.8zm3.2-25.8a6 6 0 0 1 1-1.7c.2-.5.4-1.1.3-1.7.7 0 .8.6.4 1.9-.4 1.2-1 1.8-1.7 1.5zm-8 36.2c.2-1.8.4-2 .5-.3.2 1.6 0 1.7-.5.3zm-1.8 3.4c-.7-.6-.4-1 1-1.2.1 1.5-.2 1.9-1 1.2zm1.4-2.3c.4 0 .2.4-.4 1.1 0-.7 0-1 .4-1zm-3.7-14.6l-1 .9c-.3.2 0-.3 1-1.4v-.6c1-.4 1.3-.5 1 0l-1 1zm.5 15l-1.6.1v-1l1.5-.2.1 1zm-.8 10.2a14 14 0 0 0-1.5 2.9c-1.5-.6-1.6-1.3-.3-2.2a2.1 2.1 0 0 0 .8-3.2c1.4.6 1.8 1.4 1 2.5zM294 142c-.7 0-1-.3-.6-1 .2-.6.3-1.1.3-1.7 1.4-.1 1.8.2 1.2 1-.6.7-1 1.3-.9 1.7zm-3.1 5.7c.6-.7.8-1.7.5-2.5-.3-.9.3-1.4 1.7-1.5.5 1.8-.2 3-2.2 4zm-1 1.4c-.8-.8-.5-1.3 1-1.4.1 1.7-.2 2.2-1 1.4zm-2.7 9.7c-1.6-1.3-1.7-2.4-.3-3.2 1.3-.9 2-2.4 1.7-4 1.2 1 1.3 2.2.4 3.8-.7 1-1.3 2.2-1.8 3.4zm-4.5 8c-1-1.7-.9-2.2.1-1.4 1 .8 1 1.2-.1 1.3zm-1 1.1a1 1 0 0 1 1-1.2 1 1 0 0 1-1 1.2zm.4 3.5l-2 2c-.7-.2-.7-1 0-2.4.7-1 1.2-2 1.6-3 1 1.6 1 2.8.4 3.3zm-3.4 3.8l.5-.9.2 1.6c0 .2-.2 0-.7-.7zm-.8 2.2c.2-1.4.4-1.3.6.2.1 1.6 0 1.6-.6-.2zm-1.2 4c-.7 0-1-.3-.6-1l.3-1.7c1-.2 1.4.2 1 1-.4.4-.6 1-.7 1.6zm-1.3-7.5c-.3-.2-.7-.4-1.1-.4-.1-.7.1-1 .7-1.1.5 0 .8.3.9 1 0 .7-.1.9-.5.5zm-2.2-11c.2-1.4.4-1.4.5.2.2 1.6 0 1.6-.5-.2zm2.2 21.2c-.3.3-.4.7-.4 1.1-.8-.2-1-.6-.7-1 .3-.3.5-.7.5-1 .7.2.9.6.6 1zm-6.7-7.8c-1.1-.3-1.4-.7-.7-1.3.6-.5.8-1.3.3-2 1 0 1.4.4 1 1.3-.4.6-.6 1.3-.6 2zm1.7 21.5c-.7.9-1.2 2-1.3 3-1.5-.5-1.7-1.3-.8-2.5.9-1 1.3-2.1 1.3-3.4 1.4.6 1.7 1.5.8 2.9zm-3.7 5.5c1.3-.9 1.5-.7.6.4-1 1.2-1.2 1-.6-.4zm-5 14.4c-.2-1.4 0-2.8.7-4 .6-1 1-2 1.3-3.1.8.6.8 1.8.1 3.4-.5 1.3-1.2 2.6-2 3.7zm-1.4 1.5c0-.5.1-1 .4-1.4h1a3 3 0 0 1-.8 2.2c-.3 0-.5-.3-.6-.8zm.2-23.3c-.3 0-.2-.2.5-.6a.5.5 0 0 1-.5.6zm1-1.7c.3 0 .1.3-.5 1 0-.6 0-1 .4-1zm-1.5 27.5c0-.7.1-1.1.5-1.1.3 0 .2.3-.5 1zm-4.3 10c.9-1.7 1.5-3.6 1.9-5.5a8 8 0 0 1 2.4-4.5l-1.2 6a5.6 5.6 0 0 1-3 4zm.2-13.4c.6-1.4 1-1.5 1.4 0 .3 1.3-.1 1.4-1.4 0zm-1-10.6c0-1.8.3-1.8.5 0 .1 1.7 0 1.8-.6 0zM251 244c-.2-1.9.3-3.8 1.6-5.2a6.4 6.4 0 0 0 1.6-5.3c1.2 1 1.2 2.7 0 5.1-.8 2-1.9 3.8-3.2 5.4zm-.3-24c-1-1.4-.9-1.7.1-1.1 1 .6 1 1-.1 1zm-1.1 0h1c.2 1-.1 2-.7 2.7-1 .1-1.2-.7-.3-2.6zm0 26.3c-.8-1.3-.7-1.7.2-1 1 .6 1 1-.1 1zm-8.2 23.4c-1-2.4 0-6.1 2.8-11.3 2.3-3.8 4.1-7.8 5.5-12-.1 4.2-1.3 8.3-3.3 12-2 3.6-3.7 7.4-5 11.3zm5.7-40.2c-.9.4-1.2 1.5-1 3.3-.8-.7-.9-1.7-.3-3.2.3-1.1 1-2.1 1.8-2.9.5 1.4.3 2.3-.5 2.8zm.6-4.7c1 .5.9 1.1 0 2-1-1.8-1-2.4 0-2zm-2.2 17.7c.6-1.1 1-1 1.4.4.3 1.4-.1 1.3-1.4-.4zm-1.3-7.4c-.4 0-.2-.1.5-.6a.5.5 0 0 1-.5.6zm.9-1.7c.3 0 .2.4-.4 1.1 0-.7 0-1 .4-1zM242 254c-1.1-.6-1.2-1.5-.3-2.6.8-.8 1.3-1.8 1.4-2.8 1 .6 1.2 1.4.2 2.6-.7.8-1.2 1.8-1.3 2.8zm0-15.5l.4-.9.2 1.6c0 .2-.2 0-.6-.7zm0 3.5a4 4 0 0 0-1 3c-1-.6-1.3-1.5-.5-2.6.7-.8 1-1.8 1-2.8 1.2.6 1.4 1.4.6 2.3zm-1.9 14.4c0-.4.5-.6 1.6-.7 0 .3-.5.6-1.6.7zm-.5 15c.2-1.4.4-1.3.5.2.2 1.6 0 1.6-.5-.2zm-.9-8c-.3.1-.6-.6-.7-2a1 1 0 0 1 1.1 1c-.3 0-.4.4-.4 1zm-49.1-44c.8-1.8 1.1-3.7 1-5.6 2 1.3 2.5 2.7 1.6 4.4a9 9 0 0 0-1 5.3c-2-.6-2.4-2-1.6-4.2zm-.4 16.8c.2 1.6 0 1.8-.5.4.2-1.8.4-2 .5-.4zm-.9-3.6c.2-1.6.6-2.5 1.4-2.6 0 .6.2 1.2.7 1.6.3.3.4 1 .2 2-1.7 1-2.5.6-2.3-1zm3-7c-.7.5-1 1.4-.8 2.2.2.8-.1 1.7-.8 2.2a18 18 0 0 1-.1-3.2c0-1 .6-1.5 1.7-1.2zM189 243a6 6 0 0 1-.9 2.2c-.3 0-.6-.8-.8-2.6 1.4-.8 1.9-.7 1.7.4zm-1.1 20.2c.1 1.3-.2 2-.8 2.5a2 2 0 0 1-1.6-2.2 5 5 0 0 1 1-3.1 4 4 0 0 1 1.4 2.8zM215.5 73c.8 1.4 1.1 3.1.7 4.7-.3 2-.2 4 .4 6-2.8 21-5 42.6-6.8 65a864.1 864.1 0 0 1-7.8 66.2c-.4 14.4-1.6 28.7-3.5 43a219.6 219.6 0 0 0-1.4 42.8l-2.4 2.9c2.6 1.2 3.7 3.6 3.2 7.4-.5 3.8.3 7 2.3 9.2 5.4-3.2 9.7-8 12-14 2-5.2 4.9-10.1 8.6-14.5 0 .4.6.5 1.6.4-1.4 2.4-2.6 5-3.5 7.6-1 2.9-2.3 5.6-4 8.2 2.3-.7 4.3-2 5.8-3.9 1.4-2 2.3-4.3 2.8-6.7.4 0 .6.2.6.8 0 .5.5.7 1.2.6.9-2 1.6-4.1 2-6.3.4-2.4 2-4.3 4.3-5 .2 2 .5 3.1.8 3-3.2 6.5-6.4 13.1-9.4 19.8a31.8 31.8 0 0 1-15.2 15.6l-4.7-.6c-1.5-.2-3 .2-4.4 1-3.3-.8-6.2-2.8-8.1-5.6-1.8-2.9-3-6.1-3.4-9.5-.6-4-1-7.8-1-11.7 0-4.1-.3-8-.7-11.5l1.4.1c.2.2.6.2 1.4.2a165.5 165.5 0 0 1 1.4-32.4c-1.1-.2-1.5.1-1.3 1 .3.8.1 1.8-.5 2.4-.4-.6-.5-2-.2-4.2.3-2 .4-4 .2-6 .7 0 1 .1 1.1.5 0 .3.4.7 1.2 1 .5-5.8 1-12 1.8-18.5s1.4-12.5 1.9-17.9c1.7-.2 2.4-.8 2-1.8 1.7-.2 2.4-.8 2.1-1.8-.3-1.4-.6-2.8-.7-4.3 1-1.1 1.3-3.5.9-7-1.7.9-2.3 1.8-1.8 2.9.5 1.3.8 2.7 1 4.1-.7.8-1 1.8-1.1 2.8a25 25 0 0 1-.5 3.3c-1.8-.5-2.2-1.8-1.2-3.9 1-2 1-4.2.2-6.2-1.9-.1-2.4.5-1.7 1.8.7 1.4.2 1.8-1.2 1.2l4.5-15.7c1.1-5.2 2-10.4 2.4-15.6-.9-1-1.4-1.4-1.8-1.4a4 4 0 0 1-1.6-.4v-4.3c0-1.1.2-2.3.8-3.3a7.1 7.1 0 0 1 1.4 4c0 1.3.8 2.5 2 3.2-1-3-1-6.1-.2-9.1 1-3.2 1.4-6.5 1.4-9.8a3.8 3.8 0 0 0-2.2 4c.2 1.6 0 3.3-.6 4.9 0-8.3.4-16.6 1.4-24.8 1-8.7 1.9-17.7 2.6-26.9.6-9 .7-18.2.3-27.3a111 111 0 0 0-4.7-27.1c-2.6 1.2-4.9 3-6.7 5.2a65.3 65.3 0 0 0-5 7c-1.4 2.5-3 5-4.8 7.4a24.7 24.7 0 0 1-6 6.3c-1.7 6-4.3 11.7-7.6 16.9-3.3 5.1-6 10.6-8.2 16.4-1.8-.5-2.7.4-2.6 2.7 0 2.3-1.2 3.6-3.7 3.9 1 2.7 1 4.7-.1 5.9a6 6 0 0 0-1.4 5c-1 0-1.7-1-2-3-.5 1.2-1.2 2.4-2 3.6-1 1.7-1.2 3-.4 3.6 1 1.7 1.1 2.8.7 3.4a7 7 0 0 0-1.2 2c-.7 0-1.2-1-1.4-3.1-2.5 4.4-4 9.3-4.4 14.4-.3 5-1.7 9.8-3.8 14.3-1.2-.9-1.8-1-2-.3 0 .7-.6.8-1.8.2a6.3 6.3 0 0 0-1.4 4v4.5c-.1 1.5-.3 3-.7 4.6a5.7 5.7 0 0 1-2.6 3.5c-.8-1-.9-1.7-.2-2.1.7-.5.8-1.2.3-2.2-2 2-2.6 4.1-2 6.4.6 2.7.5 5.6-.2 8.3a1.4 1.4 0 0 1-1.7-1.4 37.9 37.9 0 0 0-3.6 14.8c0 4.7-1.7 10.2-5 16.6-1 .9-1.5.8-1.8 0-.3-1-.8-1.3-1.5-1.2-.2 1.3 0 2.7.7 4 .6.7 1 1.7 1.1 2.7-3.4 1.8-4.2 4.4-2.4 7.8l-3.2.3c.1.8.3 1.2.7 1.3l1.1.7c-.6 1.2-1 2.5-1.2 3.9a5.2 5.2 0 0 1-1.7 3.4l.6 5.8a19.6 19.6 0 0 0-2.8 9.7c-.2 4.1-1.7 7.2-4.3 9.3-1.3 8.4-2.9 16.3-4.8 23.8l-5.4 22.3c-1.8 7.6-3.1 15.2-4 23-1 8.3-1.2 16.8-.6 25.2l-3.2 2.7a7.6 7.6 0 0 1-4.3 1.8c0-.3-.6-.4-1.7-.3-2-3-3.5-6.4-4-10-.6-3.8-.7-7.5-.4-11.3.3-3.7.8-7.4 1.5-11.1l2.1-11c1-7.2 2.2-13.9 3.5-19.9 1.4-6 2.7-12.5 4.2-19.5 3.8-14.7 7.8-29 12-42.8a8885 8885 0 0 1 12.9-41.3c1-2.7 2.3-5.3 4-7.6a22 22 0 0 0 3.5-7.7c.6-.8 1-2 .7-3l.1-4c4.2-12 9-23.8 14.6-35.3a369.2 369.2 0 0 0 14.1-33.7c1.8-.2 2.6-1.2 2.6-3.2s.8-3 2.6-3.2a140.9 140.9 0 0 1 29.7-48.7c-.6 2.3-1.8 4.6-3.3 6.5-1.6 2-2.9 4.2-3.9 6.6a10.7 10.7 0 0 0-4.3 4.7 79.9 79.9 0 0 0-3.3 7c-1 2.4-2.1 4.7-3.5 6.9a17 17 0 0 1-5.1 5 34.3 34.3 0 0 1-9.7 20.4l.5 4.8c-5.2 9.4-9.8 19.2-13.5 29.3-4 10.5-7.3 21.2-10 32.1 8.7-22.4 18-44.1 27.7-65.4a455.8 455.8 0 0 1 34-61.2c-.9.7-1.7 1.5-2.4 2.4-.8.8-2 1.2-3.2.9 1-3.1 3-5.7 5.7-7.3 2.7-1.6 5.7-2.5 8.8-2.8 3.2-.3 6.5-.2 9.7.3 2.7.4 5.4 1.3 7.8 2.7.4 3 1.1 5.8 2.2 8.6 1.3 3.3 2 6.7 2.4 10.2.3 1.7-.6 3.3-2.2 4zm-26 236.7c-.2-1.5-.4-1.4-.5.4.4 1.4.6 1.3.5-.4zm-2.7-19.8c.5.8.6 1.8.3 2.7-.2 1 0 1.6.7 1.5-.5-.9-.4-2 .3-2.7.6-.7.2-1.2-1.3-1.5zm9.2 20.8l-.2-1.6c0-.2-.2.1-.4.8.4.7.6 1 .6.8zm-1.4 6.8l-.1-.8c0-.1-.2.1-.5.9.4.7.7 1 .6.7v-.8zm.5-9.7c0-.4.2-.8.5-1.1.3-.4 0-.7-.7-1 0 .4-.1.8-.4 1.1-.3.4-.1.8.6 1zm-3.4-32.6c-.2-1.6-.3-1.6-.5-.2.5 1.8.7 1.8.5.2zm-.8-2.9c1 .3 1.6 0 1.5-.7-.1-.5 0-1.1.4-1.6a1.9 1.9 0 0 0-2 2.4zm-2-19.6c1.2 1.7 1.7 1.8 1.6.4-.2-1.4-.7-1.5-1.7-.4zm3.2 5.3c-.5 3-.8 6.3-1.2 9.5 1.6-2 2.7-5 3.3-9.2.7-4.2.1-7.6-1.6-10.3 0 3.4-.1 6.7-.5 10zm1.7-13.9c.8-.5 1.4-1.3 1.6-2.3.5-1-.2-1.6-2-1.4.8.7.8 1.4 0 2.2-.8.8-.7 1.4.4 1.6zm.2-8.3c.1.9-.4 1.4-1.4 1.5l.1 1.6c.4 0 .8.1 1.1.4.4.3.8.1 1-.6-.7 0-.5-.7.6-2.2 1.1-1.6.7-2.6-1.1-3.1-.3.8-.4 1.6-.3 2.4zm2.5-12.3l-2.7.3c0 .9.4 1.8.8 2.6l1.3 2c-.5-1.4-.4-2.3.3-2.7.6-.5.7-1.2.3-2.2zm-.5-9c.2 1.7.5 2.6.9 2.5a1 1 0 0 1 .9-1.2 1.4 1.4 0 0 0-1.8-1.3zm0-18c-1-.5-1 .2 0 1.8-1.1.2-1.2.5-.5 1.2.8.6 1 .2.5-1.2 1-.7 1-1.4 0-1.8zm2.3-1.6c.8.6.7 1.3 0 2.1-.9.8-.7 1.4.4 1.6.7-.5 1-1.4.8-2.2-.1-1-.5-1.6-1.2-1.5zM127.9 178c1.1-.1 2-.8 2.5-1.8-1.8.2-2.6.8-2.5 1.9zm5.7-14.5c-.5 0-.7.3-.7.6.7 0 1.1 0 1.4.4.2.3.3.2.2-.5 0-.4-.3-.5-.9-.5zm14.8-27.8c1 .6.5.8-1.3.7 0-1 .3-1.3 1.3-.7zm84.5 148.7c1.3-.8 1.9-.6 1.7.7l-.8 3c-.7 0-1-.3-.7-1.3a3 3 0 0 0-.2-2.3zm-1.7-16.4c.5 2 .3 2.8-.6 2.2-1-.6-.8-1.3.6-2.2zm.2-3.2c1-.1 1.3.2.9 1-.5.6-.7 1.4-.6 2.1l-.5.1c-.1-.5-.1-1 0-1.6.2-.5.2-1 .2-1.6zm-8.5 26.6a8 8 0 0 1 .3-7 28 28 0 0 0 2.5-6.7c1 1.7.8 4-.3 6.7-1 2.3-1.8 4.6-2.5 7zm7.8-17.5c2 1.6 2.2 3.6.6 5.9-1.5 2.3-3.2 3.7-4.9 4.2.5-1.7 1.3-3.3 2.5-4.8a9.1 9.1 0 0 0 1.8-5.2zm2-12c1.4-.1 1.9.1 1.4.7-.5.5-.7 1.2-.6 2-.4 0-.6-.8-.8-2.6zm4 17.3c.1-1 .6-2 1.2-2.8.9 1 .8 2.4-.2 3.2-1 1.4-1.7 3-2.2 4.6-1 0-1.7-1.1-2-3.6 1.9.2 2.9-.2 3.1-1.3zm1.9-6.9c0 .4 0 .7-.2 1.1l-.1 1-.2-1.2.5-.9zm-1-7.6c-.4.4-.7 1-.7 1.6-.7.1-1-.2-.7-1 .3-.5.4-1 .4-1.6 1-.1 1.4.2 1 1zm-1.4 3c0 1.3-.5 1.4-1.3.4 1-1.4 1.4-1.6 1.3-.3zm0-13.6c1 .2 1.3.7.6 1.5a3 3 0 0 0-.8 2.2c-1.1-.5-1.4-1.2-.7-1.8.6-.4.9-1.1.8-1.9zm63.4-125c.2 1.7 0 1.8-.5.4.2-1.8.4-2 .5-.3zM372 546.6c0 .7-.4 1.1-1.5 1.2 0-.7.4-1 1.5-1.2zm2 18.8c.1 1.6 0 1.6-.6-.2.2-1.3.4-1.4.6.3zm-3.7-27.5c.4-.7.6-1.6.5-2.4.7-.1 1.2.5 1.3 1.7a4 4 0 0 1-.8 3c-1.1-.5-1.4-1.3-1-2.2zm2.1 17.8c1.9.5 2.1 1.5.9 3.1-.4 0-.7-1-.9-3.1zm3 18.7c0 1.7 0 3.4-.5 5.1-1.1-.6-1.2-1.8-.4-3.7 1-1.9.4-3-1.4-3.6 1.6-1.2 2.4-.5 2.4 2.2zm.1 5.6c0 .4-.2.2-.6-.5a.5.5 0 0 1 .6.5zm.8 7.4c-1 .9-1.5.8-1.6 0l-.3-2.5c1 0 1.7.8 1.9 2.6zm1.3 9.6c-.3 2-.3 4.2-.2 6.4a9.9 9.9 0 0 1-1.1-5.8c.1-2.2-.3-4.3-1.2-6.3 1.9 1 2.7 2.8 2.5 5.7zm.1 9l-.3 1.7.3-2.2v.5zm1.7 8.7v2.4c-1 .1-1.7-.7-1.9-2.5 1.4-.8 2-.8 2 .1zm1.3 9.8l.1.8c0 .2-.2 0-.6-.7l.4-.9.1.8zm-.4-4.5c0 .4-.1.9-.5 1.1-.3.2-.6.3-.8 0-.2 0-.1-.7.1-1.8.7 0 1.1.2 1.2.7zm4.4 22c-.1 2 0 4.2.1 6.2a8.8 8.8 0 0 1-1.2-4.4c-.1-2-.4-4.1-1-6.1 1.5.6 2.2 2 2.1 4.3zm-14.5-137.6c.3-1.4.3-2.8.1-4.3.9.8 1.2 2 .9 3.2-.2 1.2-.1 2.5.4 3.7-1-.4-1.6-1.5-1.3-2.5zm19.3 157.8a9.4 9.4 0 0 1-3.5-5.8l-1.7-7.6a8.8 8.8 0 0 1 3.4 6c.2 2.6.9 5 1.8 7.4zm-18.2-196c.6 0 .9.3 1 1 0 .7-.2 1-.5.6-.3-.3-.7-.4-1.2-.4 0-.7.2-1 .7-1.1zm6.3 62.1c.2-.7.4-1 .4-.8l-.1 1-.2 1.1-.1-1.3zm10.4 104.3l-.3-3c.2-1 .4-.9.6.5l.3 2.7c-.3 1.1-.5 1-.6-.2zm-9-76c1-.1 1.6.5 1.8 2-.4 0-.6 0-.6-.3 0-.1-.4-.2-1-.1l-.3-1.6zm1.6 5.4l-.1 1.7c-.1.5-.3.8-.5.8-.1 0-.3-.8-.5-2.6.7-.4 1-.4 1 .1zm5.6 59l-.1 1-.2 1.1-.1-1.3c.3-.7.4-1 .5-.8zm-5-43.7c.2-.8.3-1 .4-.9 0 .4 0 .8-.2 1.1l-.1 1.1-.2-1.3zm-3-28.4l-.2-1.3.4-.9-.1 1.1-.2 1.1zm1.4 3.3l-.1 2c-.1.5-.3.7-.5.5-.2-.2-.4-1.1-.6-2.9.7-.3 1-.2 1.2.5zm18.2 117.7a15.9 15.9 0 0 1-2.2-6.2c1 .2 1.8 1.1 1.8 2.2l.4 4zm7.4 13.7c-2-1.6-3.5-3.6-4.4-6l-3-7.7c2 1.7 3.5 4 4.2 6.5.7 2.6 1.8 5 3.2 7.2zm-9.9-22.3c.2 1.6 0 1.7-.5.3.2-1.8.3-1.9.5-.3zm-4.8 2.4v2.7c-1-1-1.5-2.3-1.5-3.6 1-.5 1.5-.2 1.5 1v-.1zm21.9 32.5c0-1-.7-1.8-1.6-2.2-1-.4-1.3-1.6-1.2-3.4 1.7.8 3.2 1.9 4.4 3.3 1 1.3 2 2.4 3.3 3.4.1 1-.2 1.7-.9 1.7-.4-.6-.6-.8-.6-.4a.5.5 0 0 0 .6.4c1.2 1.3 2.4 2 3.4 1.8-.7-3.8-2.3-6.3-4.8-7.5-2.4-1.2-3.9-4-4.4-8.7 0-.7-.8-1-2.2-.8a148 148 0 0 1-17.4-58.2 90.8 90.8 0 0 1-2.7-13.2 387.5 387.5 0 0 1-2.2-21.2c-.2-1.7.3-3.5 1.3-5 1.2 3.6 2.1 7.1 2.8 10.8.8 4.4.4 7.7-1.1 10 0 .7.3.9.8.4.5-.4.8-.2.9.5 1 9.5 2.6 18.9 4.8 28.2 2.2 9.2 4.2 19 6 29.1 3.1 6.1 6.4 12 9.9 17.5 3.3 5.2 6.2 10.8 8.7 16.5 1.8-.2 2.6-.8 2.5-1.9.4.8.8 1.7 1 2.6a4 4 0 0 0 2.2 2.4c1.8.5 2.6.2 2.3-1-.3-1.2.4-1.8 2.2-1.6.6 1.7.6 2.9.1 3.5-.5.7-.7 1.6-.5 2.4-11.5-.2-19.9-4.3-25.2-12.3a169.2 169.2 0 0 1-14.3-27c3.4 5.8 6.6 11.4 9.5 16.8 2.9 5.4 7.2 10 12.4 13.2zm-40-266.3a2 2 0 0 1-.1 2c-.8 0-1.2-1-1.4-3.1.7 0 1.2.3 1.4 1.1zm4.6 57.2l.4-.9-.1 1.1-.2 1.1-.1-1.3zm2.7 36.2l.1.8c0 .1-.2-.1-.6-.8l.4-.8.1.8zm-.9-18.7l-1.5.2-.2-1.6 1.6-.2.1 1.6zm-7.3-59.8l.1 1.3c0 .5 0 .8-.2.8-.1 0-.3-.7-.4-2 .3-.4.4-.4.5 0v-.1zm6.8 70.3c.2 1.6 0 1.7-.5.3.2-1.8.4-1.9.5-.3zm-4.2-38.2c-.8 1-1 1-.3-.2 1-.8 1-.7.3.2zm18.3 177.5c1.1.2 1.8 1.7 2.1 4.6-1-.2-1.8-1.8-2-4.6zm-1.2-6.9a1 1 0 0 1 1.2 1 5 5 0 0 1-.4 2.2c-.3 0-.6-1-.8-3.1zm-13.3-177.1l-.3 2.2-.2-1.6c.3-.8.5-.9.5-.6zm.6 10.4c.1 1.6 0 1.5-.6-.2.2-1.5.4-1.4.6.2zm-.6-5.3c.2 1.6 0 1.7-.5.3.2-1.8.4-1.9.5-.3zm-5-60.9c-.2 0-.4-.7-.5-2 .2-.8.4-1 .5-.4l.1 1.6c.1.5 0 .8-.1.8zm-.2-9.4l.2 1.6c0 .2-.2 0-.7-.7l.5-.9zm5.4 41.6c.2-1.5.4-1.4.6.2.1 1.6 0 1.6-.6-.2zm-4.2-65.3l.2 1.6c0 .2-.2 0-.6-.7l.4-.9zm.7-34.6c.7.3 1 .6.6 1-.3.3-.4.7-.4 1-.7-.2-1-.5-.6-1 .2-.2.4-.6.4-1zm.7 19.5a9.1 9.1 0 0 1-1.6 3c-.4-.6-.6-1.5-.5-2.3v-3c1.8.3 2.5 1 2.1 2.3zm-.1-14c.1 1.3-.4 1.6-1.5 1l-.3-2.1c1-.4 1.6 0 1.8 1.1zm.8-12.6c.2-1.5.4-1.4.5.2.2 1.6 0 1.6-.5-.2zm.2-13c.3-.3.5-.3.6.3l.2 1.6c0 .5 0 .8-.2.8s-.4-.8-.6-2.6zm10.5 38.6c-.1 2.2.1 4.3.7 6.4-.4 0-.6-.6-.8-2a72 72 0 0 1-.5 15.3 378.8 378.8 0 0 0-2.2 22.7c-.3 1.3-.4 2.7-.3 4 0 .8.4 1.4 1 1.8.5.5.9 1.1 1 1.8 0 1-.1 2-.6 2.8l-1.5 2.8c-.2 5 0 10 .5 15a85.2 85.2 0 0 1-.3 20.4l-.6 7.5c-.4 2.2-.5 6.3 0 12.4.4 5 .5 10 .2 15-.4 9.2-.3 18.5.5 27.8.8 9 1 18.2.5 27.3a213.7 213.7 0 0 1 2.6 40 305.8 305.8 0 0 1-4.6-46c-.3-15.5-.5-29.3-.3-41.5a522 522 0 0 1-.3-69.4l3.9-69.8c1 1.7 1.3 3.8 1.1 5.8zm-8.7-47c0-.2-.2-.3-.5-.3l-.2-1.5c1-.2 1.7.5 1.8 2-.7 0-1 0-1-.2zm1.9 7.3c0-.2-.4-.3-1.1-.2l-.2-1.6c1 0 1.7.6 1.8 2-.3 0-.5 0-.5-.2zm2.2-39.7c0 .4-.4.6-1.5.7 0-.2.5-.5 1.5-.6zm1.3-13.8l.1 1.6c0 .2-.2 0-.6-.7.3-.7.4-1 .5-.9zm.8-7.3l.4-1.7c1 0 1.3.3.9 1-.4.5-.6 1.1-.7 1.7-.7.1-.9-.2-.6-1zm2-23.8c1 .6 1 1.3 0 2.1-1-2-1-2.7 0-2v-.1zm-.7 3.5c-1-.7-.7-1.2.7-1.4.5 1.9.3 2.3-.6 1.5zm3.5-2.5c1.1-2.3 1.5-4.8 1.1-7.3 2 4.5 2.2 9.5.7 14.1a53.8 53.8 0 0 0-2.5 14 2.8 2.8 0 0 1-3-2.7 16 16 0 0 1 2-9.3c.7-1.3 1.3-1.8 1.7-1.5-1-2.3-1-5 0-7.2zm.8-20.7c1-.1 1.7.6 1.8 2-1 .5-1.6-.1-1.8-2zm2.6 6.7a1.8 1.8 0 0 0 0 2.7c-.7 0-1.1-.5-1.3-1.8 0-1.2.2-2 .9-2.5 1 .3 1.2.9.4 1.6zM385.8 350a11 11 0 0 0-.2-9.1c1.7-11.6 3-23 3.7-34l2.4-36.4c2-3.8 3.1-7.9 3.5-12.1l.7-13.5c1-.1 1.6 0 1.7.3-2.3 16.4-4.1 34.5-5.6 54.5a1628 1628 0 0 1-5.2 57.7c-2-1.6-2.3-4-1-7.4zm10.8-116.7c1.3-3.7 2.3-7.4 2.8-11.3.7 3.4.5 7-.5 10.2-1 3.7-1.4 7.6-1 11.4-2.4-2.6-2.8-6-1.3-10.3zm2.2-12.3c.2-1.1 0-1.8-.5-2.1-.6-.3-1-.9-1-1.5 2.1-.6 3-2.6 2.6-6.2 1.9.9 2.4 2.5 1.6 5-.5 1.8-1.4 3.5-2.7 4.8zm-1.2 1.5c-1-.8-.6-1.3 1.2-1.5.2 1.8-.2 2.3-1.2 1.5zm3.7-13.6l.3-2.1c.7-.1 1 .3.9 1.2 0 .8-.3 1.7-.5 2.5-.8 0-1-.4-.7-1.5zm1.5-5.5c1-.8 1-2 .2-3.8a2 2 0 0 1 .8 2.9c-.5 1-.8 2-.8 3-1-.5-1.2-1.2-.2-2zm1-6.8c.2-.8.2-1.6.2-2.4 1.1.6 1.5 1.2 1 1.7-.5.6-.7 1.3-.6 2-.7 0-1-.3-.7-1.3zm-3.2 8.7c-.4.6-.6 1.4-.6 2.2-1-.3-1.2-.8-.4-1.6.8-.8.8-1.5 0-2.2 1.1.3 1.5.8 1 1.6zm-4.6-20.5c.7 0 1.1.1 1.2.4 0 .4-.4.3-1.2-.3zm-1 .7c-.7 0-1.1-1-1.4-3.1 1-.5 1.6-.3 1.7.4 0 .7.3 1.4.7 2-.7.1-1 .4-1 .7zm3 7.7c-.9-1.3-.8-1.7.1-1 1 .5 1 1-.1 1zm-1.3 7.6a2.8 2.8 0 0 1-1.3-3.9 9.7 9.7 0 0 1 2.6-3.7c.2 1.4 0 2.8-.6 4-.7 1.2-1 2.4-.7 3.7zm3.5-27.1c.2 1.7 0 1.8-.5 0 .2-1.8.3-1.8.5 0zm3.6 16.5c-.2 1.4-1 2.7-2 3.7-.9-1.7-.8-3.2.1-4.3 1-1.3 1.2-3 .6-4.4a6 6 0 0 1 1.3 5zm-2.8 11.3c-.8-.7-1-1.8-.6-3.5.3-1.3.4-2.7.4-4l1-.1a15 15 0 0 1-.1 4l-.7 3.6zm2.5-17.5a8.1 8.1 0 0 1-.7-4c0-1.9.8-2.8 2.6-2.6-1.2 2-1.2 3.2-.1 3.8 1.1.6 1.6 1.8 1.5 3.6-1 .8-1.6.1-1.9-2-1 .2-1.5.6-1.4 1.3zm1.7-65c1.5.5 2 2.1 1.3 4.7-.6 2.5-1.5 3.9-2.5 4-.3-1.5 0-3 .6-4.4.6-1.3.8-2.8.6-4.3zm-.4 16.1c-.7.7-.9 1.6-.6 2.5.3.9-.3 1.4-1.7 1.5-.3-2.4.5-3.8 2.3-4zm-1.1 20.2c.1 1.6 0 1.6-.6-.2.2-1.4.4-1.3.6.2zm-1.8-11.8l.3-2.2c1 .2 1.4.7 1 1.5-.5.6-.7 1.4-.6 2.2-.7.1-1-.4-.7-1.5zm8.7-39.8l.1 1.6c0 .2-.2 0-.6-.8.3-.7.4-1 .5-.8zm6.4-35.3c-1 .5-1.6-.2-1.8-2 1 0 1.7.7 1.8 2zm-.1 3.5c.2 2 0 3.3-.7 4.1-.8-.8-1.2-2-.8-3.1.2-1.3 0-2.6-.4-3.7 1-.1 1.7.8 1.9 2.7zm1.6-19.7l-.3 1.6c.2-.7.3-1.4.3-2.2v.6zm2 3.8l.2 1.6c0 .2-.2 0-.6-.8l.4-.8zm2.2-10.2l-.2-1.6c.7 0 1-.2 1-.6.7 0 1.2.4 1.3 1.5 0 1-.6 1.3-2.1.8zm-.2-17.1c.3-.7.4-1 .5-.9l.1 1.6c0 .3-.2 0-.6-.7zm1.5 9v.7c0 .2-.1 0-.5-.7.2-.7.4-1 .4-.8v.8zm1.2-16.3c-.2-.3-.7-.4-1.4-.4 0-.3.3-.5.8-.6.5 0 .8.1.8.5.1.7 0 1-.2.6zm-.1 11.3c1-.1 1.7.7 1.8 2.5-1 .5-1.6-.3-1.8-2.5zm4.5-17.9c.2 1.3-.1 2-.8 2.5-.7 0-1-.5-1-1.8 0-.8.2-1.7.6-2.4.7 0 1 .5 1.2 1.7zm3-17c.5 1.3-.1 2-1.9 2.1l-.4-4.2c1.1.3 2 1 2.4 2.2zM430.9 6c-.9 1.4-1.2 3.4-.9 6.3-.3-.6-.8-1-1.5-1.2a5 5 0 0 1-2-1.2c.5-.7.8-1.6.8-2.4 0-1.2 0-2.4.2-3.6 1.2 1.4 2 1.1 2-.7 0-.7-.2-1-.6-1-.3 0-.5-.3-.6-1 .4 0 .8-.3 1-.7.4-.4 1-.6 1.5-.7 1 2.8 1 4.9.2 6.2zm2.6 8.6c-.8-.3-1-1.2-.9-2.6.3-1.1 0-2.3-.8-3.1a2.7 2.7 0 0 0 2-3.5l-.7-4.2c1.4-.1 2.2 0 2.2.3 0 .4.4.2 1-.6 0 1 .3 2 .6 2.9l.5 2.3-2.1.3c.7.6 1 1.2.7 1.8a11 11 0 0 1-1.2 1.7l-1.1 1.7c-.3.6 0 1.4.8 2.3-.8.1-1 .4-1 .7zm1-15.1c.2-2.1.7-4.2 1.6-6.1.5-1.1.3-3-.7-5.8 1 0 1.9.2 2.8.5.3.1.4-.7.3-2.5.7 0 1 .6 1 1.8-.2 1.5-.5 3-1 4.4-.5 1.6-1 3.3-1.3 5-.3 1.3-.5 2.7-.4 4h-.5a1.4 1.4 0 0 0-1.7-1.3zm1.6-15.8a1.4 1.4 0 0 0 1.4-1.7c.7 0 1 .4 1 1.5v2.1l-2.2.3-.2-2.2zm-1.1-.4c0-.3.3-.2 1.1.4-.7.2-1 0-1.1-.3zm-21 161.7c.1 1.6 0 1.8-.6.4.2-1.8.4-2 .5-.3zm-8.2 28.4l-.3 3.4c-.8-1.4-.7-2.5.3-3.4zm.4-4.2v.8l-.4-.2.4-.6zm19.1-114.6c.7 0 1.1 0 1.1.2 0 .1.2.2.6.2-.1-1-.3-1.8-.6-2.7-.3-1-.5-2-.6-3.1.7 0 1.2.4 1.3 1.5 1.3-.9 1.4-2 .4-3.6-1-1.5-1-2.6.4-3.5 0-.7-.5-1-1.4-1.2-1 0-1.3-1-1.1-2.8 1.6 1.6 2.3 1.3 2.3-1-.1-2.4.2-4 .8-4.7 1 1.7 1.7 1.6 2.4-.3.7-1.8.5-3-.6-3.6 0-.4-.2-.6-.4-.5-.1 0-.2.2-.2.5-.8 1-1.3 2.1-1.2 3.4-.5-.7-.7-1.5-.8-2.4-.2-1-.7-2-1.4-2.8.7.3 1.5.5 2.2.6.7.1.7-.3-.1-1.3.6.2 1.2.5 1.7.9.4.3.9 0 1.5-.7.2 1.7.6 2.9 1.2 3.3.6.6 1 1.5 1 2.3-1.7 1-2.3 1.8-1.8 2.6.4 1 .7 2 .8 2.9-.8-.3-1.5-1-1.8-1.7-.4-.8-1-1.2-1.7-1.1-.2 1.8.1 3 1 3.9.8.9 1.3 2 1.3 3.3a1 1 0 0 1-.8-.2c-.4-.2-.9-.2-1.3 0-.3 1 0 1.6.7 1.7.6 0 1.2.6 1.2 1.2C430 51.1 429 56.1 428 61c-1 4.7-2 9.4-3.4 14-.6 1.2-.5 1.9.2 2.2a1 1 0 0 1 .7 1.5 26.7 26.7 0 0 0-3.2 14.8c.3 5.2-.8 10.3-3.3 14.8.9 5.3.5 9.6-1 13A29 29 0 0 0 416 135c-.7.1-1.1.3-1.3.7-.1.4-.6.3-1.4-.4 1 1.7 1.2 3 1 3.7a9.1 9.1 0 0 0-.2 3.7 2 2 0 0 0-2.5 1.9 5.2 5.2 0 0 1-1.7 3.4c0 .7.4 1 1.1.7.5-.2 1-.4 1.6-.4 0 3-.3 6-1 8.9-.7 2.6-1.2 5.3-1.5 8 .3-.9 0-1.8-.6-2.4l-1.4-1.2c-.7.4-1 1.2-.6 2 .2.8 0 1.7-.6 2.4-.3 0-.5.4-.4 1.1.5 1 .6.7.4-1.1l1.6-.2c.1 1.1.4 1.6.7 1.6.1 1-.3 1.4-1.2 1.2-.7-.2-1.5 0-1.9.7 1.8-18.2 4.6-36.3 8.3-54.2 4.3-20.6 7.9-40.8 10.8-60.4zm-5.5 49.6l-.1-1.6-.5.9c.4.7.7 1 .6.7zm-1.5 10.7c1-.9 1-1.5.3-2-.7-.4-.9.2-.3 2zm-8.2 36.5c.3 1 .1 2.1-.5 3-.3.7-.4 1-.2 1s.2-.3.2-1c1.7-.6 2.3-1.2 2-1.9-.6-1-.7-2-.4-3.1-1 .1-1.5.8-1.1 2zm1.6-12.3c-.5 2.2.1 3 1.9 2.5-.2-1.7-.8-2.6-1.9-2.5zm3-7c-.1-1.6-.3-1.5-.5.3.5 1.4.7 1.3.5-.3zm-.5-5c.5-1.9.4-2.3-.4-1.3-.8 1-.7 1.4.4 1.3-.2 1.8 0 2.2.7 1.2.6-1 .4-1.3-.7-1.2zM430 31c-.2 0-.3-.4-.4-1.1h.5c.1.7 0 1-.1 1zm-.5-7l1.6-.2.4 3.2c-1.1.1-1.7-.8-2-3zm-2.2-5.7c2.4 2 3.1 3.8 2.2 5.7-.5-.8-1-1.7-1.3-2.5-.5-1-.7-2-.9-3.1zm3.4-3.5c1.5.5 2 1.9 1.5 4-.4 1.7-.6 3.3-.5 5h-.6c-.2-1.4-.2-2.8-.2-4.2.1-1.6 0-3.2-.2-4.8zm2 8.6c0-.2.1-.3.5-.3.1.4 0 1-.1 1.3-.2.2-.7 0-1.4-.6.7 0 1-.2 1-.4zm1-1.4c.2 0 .1.3-.5 1 0-.6 0-1 .4-1zm-1.7 5.2c0 .2-.1.3-.5.3v-.5c.3 0 .5 0 .5.3zm-22.4 138.3c-.4 0-.2-.1.4-.6a.5.5 0 0 1-.4.6zm-3.3 7.3l-.6.5.3-3.4c1.6 1.1 1.8 2.1.3 3zm2.6 1.4c-.5.5-1 1.2-1.2 2l.1 3.4a4.3 4.3 0 0 1-1.4-3c0-1.4.7-2.2 2.5-2.4zm102.5 67.5c-.9.9-1.3 2-1.3 3.3-.8-.5-1-1.5-.5-2.3.4-1 1-1.2 1.8-1zm1.3-2.9v-.5c.6-.4.9 0 .9 1.3 0 1.2-.5 1.7-1.2 1.4l-.2-1.6a.5.5 0 0 0 .5-.5zm3.8-4.6c.7.6.7 1.4 0 2.4-.6.8-1.4 1.3-2.3 1.6-.2-.8 0-1.7.6-2.3a12 12 0 0 0 1.7-1.7zm6-8.7c0 3.1-1.7 6-4.6 7.4.8-2.8 2.4-5.4 4.6-7.4zm5-8.6c1.2.6.8 2-.9 4.1-1.2 1.6-2.6 3.1-4 4.5.3-1.7 1-3.2 2.1-4.5l2.8-4zm152.5 8.1c.1.7 0 1-.4.6-.4-.3-.3-.5.4-.6zm.5-.6c.3 0 .2.2-.5.6a.5.5 0 0 1 .5-.5zm120.4-12c0 .6-.1.8-.5.5-.4-.3-.2-.5.5-.6zm.5-.7c.3 0 .1.2-.5.6a.5.5 0 0 1 .5-.5zm84.6-10.2c.2 1.2-.3 1.7-1.4 1.5l-.2-1.6.5-.6c.6-.7 1-.5 1.1.7zm1.9-5.3c0 1.4-.5 1.7-1.3.7.9-1.9 1.3-2 1.3-.7zm2.1 2.5c-.6.3-1 .8-1.2 1.4-.1.6-.7.9-1.7 1-.3-2.8.7-3.6 3-2.4zm48.1 1.3c.3 1.4-.1 1.3-1.4-.4.6-1 1-.9 1.4.5zm-1.1-8.4v.8c0 .2-.2 0-.6-.8.3-.7.5-1 .5-.8v.8zm.8-4.4c0 1.4-.6 1.9-1.7 1.2 0-.4.1-1 .4-1.3.3-.6.4-1.3.3-2 .7 0 1 .7 1 2.1zm1.3 17.3v2.4c-1 .1-1.7-1-2-3.5 1.4-.5 2-.1 2 1.1zm54.6 16.8c.1 1.6 0 1.7-.5.3.1-1.8.3-2 .5-.3zm3 17.9l-.2 1-.2 1.2-.1-1.4.4-.8zm.9-19.1c-.5.4-.7 1.3-.6 2.7-.6.4-.8 0-.6-1 .3-1 0-2-.8-2.6 1.8.2 2.5.5 2 .9zm-.3 10l.1 1.5c0 .2-.2 0-.6-.7l.5-.9zm.8-30.2c-1.4 4-2 8.4-1.6 12.8-1.3-2.8-1.5-6.4-.3-11a29 29 0 0 0-.2-14.2c2.9 3.5 3.7 8.2 2.1 12.4zm6.8 31.7c-.8 2.2-.4 4 1.1 5.3-1.7.1-2.6-.7-2.4-2.7.2-2-.2-3.9-1.1-5.5 2.5-.3 3.3.7 2.4 3zm.4 13.4c-.7 0-1-.2-.6-.8.2-.4.4-.9.4-1.3l.5-.1c.1 1.5 0 2.2-.3 2.2zm.7-3.6c.8.8.6 1.3-.4 1.4-.6-1.7-.4-2.1.4-1.3zm3.5 2.6c-.2 1.5-.8 1.5-1.6.2 1.2-1.6 1.8-1.6 1.6-.2zm-3-3.4c-.2-.7-.1-1 .1-.6.3.3.5.2.8-.6a1 1 0 0 1-1 1.2zm0-17.5l.8 3.2c.3 1.1.4 2.3.1 3.4-.2 1.1-.7 1.7-1.4 1.8.1-1.2.2-2.5.1-3.8l-.5-5.3c.3-.3.6 0 .9.8zm-.2 26.9c-.1-1.6 0-3.2.6-4.7 1.4.4 2.2 1.7 2 3-.3 1.3-.3 2.6-.2 3.8-1.4.2-2.2-.5-2.4-2.1zm4.7 3.8c.1.9-.6 1.4-2 1.5l-.3-3.2c1.4.3 2.2.8 2.3 1.7zm-2.1 2.3c-.2-.1-.2-.4.1-.8.1.8 0 1-.1.9zm-9-81.9c.3 1.8 0 1.8-.4 0 .1-1.7.3-1.7.5 0zm.9 7.5l-1.6.1-.4-3.2 1.6-.1.4 3.2zm1.7 11.6c.6.4 1 1 1.3 1.7l.1 1.3c-1.4.2-1.9-.8-1.4-3zm3.7 22.6c-.8 3.7-2 6.1-3.2 7.3a8.4 8.4 0 0 1-.5-4.2l1-3.3 1.3-3.4c.4-1.4.6-2.9.3-4.3 1.6 1.7 2 4.3 1.1 8zm.2 39.4a5 5 0 0 0 3 3.7c1.5.2 1.9-.2 1.2-1.4-.6-1.2-.3-1.7 1.2-1.5.5 1.7.5 2.7-.2 3-.7.2-.8.9-.4 1.9-1.3.5-3-.3-5-2.4-2-2-3.2-4.7-3.5-7.5 1.8.8 3.1 2.4 3.7 4.3zm9.1 5.8c1 .8 2.2 1.4 3.4 1.7a82 82 0 0 0 6.3-3.8 8.4 8.4 0 0 0 3.5-5.8c.5 2.1-.1 4.3-2 6.4l-5.4 5.7c-1.9-.5-3.8-1-5.7-1.3a5.6 5.6 0 0 1-4.4-3c1.7-.9 3.2-.9 4.3 0z"></path></g></svg>