<svg width="24" height="24" xmlns="http://www.w3.org/2000/svg">

 <g>
  <title>background</title>
  <rect fill="none" id="canvas_background" height="26" width="26" y="-1" x="-1"/>
 </g>
 <g>
  <title>Layer 1</title>
  <g stroke="null" id="svg_10">
   <circle stroke="null" fill="#ffd800" id="svg_2" r="11.735138" cy="11.990609" cx="11.979142"/>
   <path stroke="null" fill="#ffffff" id="svg_5" d="m11.979142,5.389593" class="st0"/>
   <path stroke="null" fill="#000000" id="svg_7" d="m11.979142,7.223208c-1.613582,0 -2.933785,1.320203 -2.933785,2.933785s1.320203,2.933785 2.933785,2.933785s2.933785,-1.320203 2.933785,-2.933785s-1.320203,-2.933785 -2.933785,-2.933785z" class="st0"/>
   <path stroke="null" fill="#000000" id="svg_8" d="m11.979142,4.656147c-3.043802,0 -5.500847,2.457045 -5.500847,5.500847c0,2.750423 4.510694,8.031236 5.372494,9.003053c0.073345,0.091681 0.201698,0.091681 0.275042,0c0.843463,-0.971816 5.354158,-6.252629 5.354158,-9.003053c0,-3.043802 -2.457045,-5.500847 -5.500847,-5.500847zm0,9.168078c-2.016977,0 -3.667231,-1.650254 -3.667231,-3.667231s1.650254,-3.667231 3.667231,-3.667231s3.667231,1.650254 3.667231,3.667231s-1.650254,3.667231 -3.667231,3.667231z" class="st0"/>
  </g>
 </g>
</svg>