<svg width="32" height="32" xmlns="http://www.w3.org/2000/svg">

 <g>
  <title>background</title>
  <rect fill="none" id="canvas_background" height="34" width="34" y="-1" x="-1"/>
 </g>
 <g>
  <title>Layer 1</title>
  <g stroke="null" id="svg_16">
   <circle stroke="null" id="svg_2" r="15.703821" fill="#ffd800" cy="15.981598" cx="15.889006"/>
   <path stroke="null" opacity="0.2" id="svg_5" fill="#231F20" d="m22.759428,22.361275c0,1.084054 -0.878923,1.962978 -1.962978,1.962978l-9.814888,0c-1.084054,0 -1.962978,-0.878923 -1.962978,-1.962978l0,-9.814888c0,-1.084054 0.878923,-1.962978 1.962978,-1.962978l9.814888,0c1.084054,0 1.962978,0.878923 1.962978,1.962978l0,9.814888z"/>
   <path stroke="null" id="svg_8" fill="#FFFFFF" d="m10.981562,22.315836c-0.541291,0 -0.981489,-0.440198 -0.981489,-0.981489l0,-9.814888c0,-0.541291 0.440198,-0.981489 0.981489,-0.981489l9.814888,0c0.541291,0 0.981489,0.440198 0.981489,0.981489l0,9.814888c0,0.541291 -0.440198,0.981489 -0.981489,0.981489l-9.814888,0z"/>
   <path stroke="null" id="svg_10" fill="#000000" d="m20.79645,11.564898l0,9.814888l-9.814888,0l0,-9.814888l9.814888,0m0,-1.962978l-9.814888,0c-1.084054,0 -1.962978,0.878923 -1.962978,1.962978l0,9.814888c0,1.084054 0.878923,1.962978 1.962978,1.962978l9.814888,0c1.084054,0 1.962978,-0.878923 1.962978,-1.962978l0,-9.814888c0,-1.084054 -0.878923,-1.962978 -1.962978,-1.962978l0,0z"/>
   <path stroke="null" opacity="0.2" id="svg_13" fill="#231F20" d="m16.110823,20.398297c-0.30328,0 -0.592329,-0.140844 -0.779302,-0.385234l-3.002865,-3.925955c-0.32929,-0.430383 -0.246844,-1.046267 0.183538,-1.375557c0.430383,-0.328799 1.046267,-0.247335 1.375557,0.183538l2.054747,2.686335c1.13362,-2.039043 3.595194,-5.782442 7.511334,-8.31272c0.45492,-0.294447 1.063443,-0.163418 1.356908,0.291502c0.294447,0.455411 0.163418,1.062952 -0.291502,1.356908c-5.009519,3.23695 -7.483362,8.834872 -7.507899,8.890817c-0.138881,0.318984 -0.435781,0.541291 -0.781265,0.583004c-0.040241,0.004907 -0.079991,0.007361 -0.119251,0.007361z"/>
   <path stroke="null" id="svg_15" fill="#000000" d="m16.110823,19.416809c-0.30328,0 -0.592329,-0.140844 -0.779793,-0.385234l-3.002865,-3.925955c-0.32929,-0.430383 -0.247335,-1.046758 0.183538,-1.376047c0.430383,-0.328799 1.047249,-0.246844 1.376047,0.183538l2.055238,2.686826c1.133129,-2.039043 3.594703,-5.782442 7.510843,-8.31272c0.455902,-0.293956 1.062952,-0.163418 1.357399,0.291502c0.294447,0.455411 0.163909,1.062952 -0.291502,1.357399c-5.009519,3.23695 -7.483852,8.834872 -7.50839,8.890817c-0.13839,0.318984 -0.435781,0.541291 -0.781265,0.583004c-0.040241,0.004417 -0.079991,0.00687 -0.119251,0.00687z"/>
  </g>
 </g>
</svg>