<svg width="26" height="26" xmlns="http://www.w3.org/2000/svg">
 <title/>

 <g>
  <title>background</title>
  <rect fill="none" id="canvas_background" height="28" width="28" y="-1" x="-1"/>
 </g>
 <g>
  <title>Layer 1</title>
  <g stroke="null" id="svg_4">
   <path fill="#ffffff" stroke="null" id="svg_2" d="m5.729865,14.622968l12.077219,0a1.592054,1.592054 0 0 0 0,-3.184109l-12.077219,0l2.058473,-2.058473a1.591895,1.591895 0 0 0 -2.251271,-2.251271l-4.776163,4.776163a1.591497,1.591497 0 0 0 0,2.251271l4.776163,4.776163a1.591895,1.591895 0 1 0 2.251271,-2.251271l-2.058473,-2.058473z"/>
   <path fill="#ffffff" stroke="null" id="svg_3" d="m24.175301,0.294478l-12.736436,0a1.591152,1.591152 0 0 0 -1.592054,1.592054l0,3.184109a1.592054,1.592054 0 0 0 3.184109,0l0,-1.592054l9.552327,0l0,19.104653l-9.552327,0l0,-1.592054a1.592054,1.592054 0 0 0 -3.184109,0l0,3.184109a1.591152,1.591152 0 0 0 1.592054,1.592054l12.736436,0a1.591152,1.591152 0 0 0 1.592054,-1.592054l0,-22.288762a1.591152,1.591152 0 0 0 -1.592054,-1.592054z"/>
  </g>
 </g>
</svg>