<svg width="26" height="26" xmlns="http://www.w3.org/2000/svg">

 <g>
  <title>background</title>
  <rect fill="none" id="canvas_background" height="28" width="28" y="-1" x="-1"/>
 </g>
 <g>
  <title>Layer 1</title>
  <g stroke="null" id="svg_8">
   <path fill="#ffffff" stroke="null" id="svg_4" d="m23.537278,25.717651c-0.574281,0 -1.148562,-0.255236 -1.595225,-0.63809l-7.018988,-7.018988c-0.255236,-0.255236 -0.255236,-0.63809 0,-0.893326s0.63809,-0.255236 0.893326,0l7.018988,7.018988c0.382854,0.382854 1.020944,0.382854 1.339989,0c0.382854,-0.382854 0.382854,-1.020944 0,-1.339989l-7.018988,-7.018988c-0.255236,-0.255236 -0.255236,-0.63809 0,-0.893326s0.63809,-0.255236 0.893326,0l7.018988,7.018988c0.893326,0.893326 0.893326,2.297123 0,3.190449c-0.382854,0.319045 -0.957135,0.574281 -1.531416,0.574281z"/>
   <g stroke="null" id="svg_7">
    <path fill="#ffffff" stroke="null" id="svg_2" d="m10.073583,19.911034c-5.423763,0 -9.826583,-4.40282 -9.826583,-9.826583s4.40282,-9.890392 9.826583,-9.890392s9.890392,4.466629 9.890392,9.890392c0,0.765708 -0.063809,1.531416 -0.255236,2.297123c-0.063809,0.319045 -0.446663,0.574281 -0.765708,0.446663c-0.319045,-0.063809 -0.574281,-0.446663 -0.446663,-0.765708c0.127618,-0.63809 0.255236,-1.27618 0.255236,-1.978078c0,-4.721865 -3.828539,-8.614213 -8.614213,-8.614213s-8.614213,3.892348 -8.614213,8.614213s3.828539,8.614213 8.614213,8.614213c0.701899,0 1.339989,-0.063809 2.041887,-0.255236c0.319045,-0.063809 0.701899,0.127618 0.765708,0.446663c0.063809,0.319045 -0.127618,0.701899 -0.446663,0.765708c-0.829517,0.191427 -1.595225,0.255236 -2.424741,0.255236z"/>
    <path fill="#ffffff" stroke="null" id="svg_6" d="m10.073583,17.422483c-4.019966,0 -7.338033,-3.318067 -7.338033,-7.338033s3.318067,-7.338033 7.338033,-7.338033s7.338033,3.318067 7.338033,7.338033s-3.254258,7.338033 -7.338033,7.338033zm0,-13.399886c-3.318067,0 -6.061853,2.743786 -6.061853,6.061853s2.743786,6.061853 6.061853,6.061853s6.061853,-2.743786 6.061853,-6.061853s-2.679977,-6.061853 -6.061853,-6.061853z"/>
   </g>
  </g>
 </g>
</svg>