<svg width="24" height="24" xmlns="http://www.w3.org/2000/svg">

 <g>
  <title>background</title>
  <rect fill="none" id="canvas_background" height="402" width="582" y="-1" x="-1"/>
 </g>
 <g>
  <title>Layer 1</title>
  <path fill="#ffd800" id="svg_3" fill-rule="evenodd" d="m12,0c-6.625,0 -11.997,5.373 -11.997,12c0,6.627 5.372,12 11.997,12c6.626,0 11.997,-5.373 11.997,-12c0,-6.627 -5.371,-12 -11.997,-12zm4.412,16.709l-0.35,0.35c-0.291,0.291 -0.782,0.305 -1.088,0.029l-4.52,-3.955c-0.308,-0.275 -0.541,-0.838 -0.521,-1.25l0.419,-7.134c0.022,-0.413 0.377,-0.749 0.79,-0.749l0.493,0c0.413,0 0.767,0.336 0.787,0.748l0.343,5.934c0.021,0.413 0.262,1 0.535,1.309l3.144,3.628c0.273,0.309 0.26,0.799 -0.032,1.09z" clip-rule="evenodd"/>
 </g>
</svg>